<?xml version="1.0" standalone="no"?>
<!DOCTYPE svg PUBLIC "-//W3C//DTD SVG 20010904//EN"
 "http://www.w3.org/TR/2001/REC-SVG-20010904/DTD/svg10.dtd">
<svg version="1.0" xmlns="http://www.w3.org/2000/svg"
 width="2975.000000pt" height="3264.000000pt" viewBox="0 0 2975.000000 3264.000000"
 preserveAspectRatio="xMidYMid meet">

<g transform="translate(0.000000,3264.000000) scale(0.100000,-0.100000)"
fill="#000000" stroke="none">
<path d="M0 16320 l0 -16320 14875 0 14875 0 0 16320 0 16320 -14875 0 -14875
0 0 -16320z m2287 15162 c12 -6 31 -12 43 -12 12 0 36 -6 53 -14 18 -8 39 -17
47 -20 66 -27 180 -107 250 -176 59 -59 140 -176 166 -240 3 -8 12 -29 20 -47
8 -17 14 -41 14 -53 0 -11 7 -34 15 -51 23 -43 23 -342 0 -385 -8 -16 -15 -41
-15 -55 0 -14 -7 -34 -15 -45 -8 -10 -15 -27 -15 -36 0 -9 -14 -37 -30 -61
-17 -25 -30 -48 -30 -52 0 -26 -160 -192 -232 -241 -24 -16 -44 -32 -46 -36
-2 -5 -12 -8 -22 -8 -9 0 -23 -6 -29 -14 -7 -8 -26 -18 -42 -21 -16 -4 -31
-11 -34 -16 -4 -5 -18 -9 -33 -9 -15 0 -40 -8 -57 -17 -45 -25 -366 -26 -412
0 -18 9 -42 17 -54 17 -21 0 -134 52 -190 88 -41 27 -159 123 -159 130 0 4
-20 29 -44 56 -24 28 -65 91 -90 140 -43 87 -55 121 -78 231 -12 59 -5 319 9
337 6 7 14 31 17 52 8 42 62 162 83 184 7 7 13 18 13 24 0 29 227 248 257 248
7 0 13 4 13 10 0 5 11 12 25 16 13 3 29 12 36 20 6 8 21 14 33 14 11 0 30 7
40 15 11 8 31 15 44 15 13 0 33 6 45 13 46 25 358 25 404 -1z m5714 -477 c16
-49 38 -117 48 -150 10 -33 40 -127 66 -210 26 -82 49 -156 51 -163 2 -8 12
-12 21 -10 14 2 33 48 77 183 32 99 64 196 71 215 7 19 20 60 30 90 9 30 24
74 32 98 l16 42 68 0 c38 0 69 -3 69 -7 0 -5 -23 -73 -51 -153 -28 -80 -55
-161 -60 -180 -6 -19 -14 -44 -19 -55 -6 -11 -41 -114 -79 -229 -38 -115 -75
-212 -82 -217 -8 -5 -44 -9 -81 -9 l-67 0 -21 46 c-11 26 -20 53 -20 60 0 7
-6 28 -14 46 -15 35 -62 172 -76 223 -11 40 -29 92 -46 133 -8 18 -14 39 -14
47 0 8 -6 29 -14 47 -17 40 -76 225 -76 239 0 6 29 9 71 7 l71 -3 29 -90z
m985 68 c4 -15 13 -38 20 -52 8 -14 14 -33 14 -41 0 -9 4 -20 8 -25 8 -10 25
-53 97 -245 8 -22 22 -59 31 -82 9 -24 23 -61 31 -83 8 -22 21 -53 29 -68 8
-16 14 -33 14 -39 0 -5 6 -24 14 -41 62 -143 61 -147 -21 -147 -32 0 -63 4
-69 8 -7 4 -26 50 -44 102 -18 52 -38 98 -44 102 -6 5 -87 7 -180 5 l-170 -2
-7 -25 c-4 -14 -17 -50 -29 -80 -12 -30 -24 -64 -27 -75 -9 -29 -22 -35 -86
-35 -66 0 -80 14 -53 55 9 13 16 30 16 37 0 7 6 24 13 38 8 14 16 34 19 45 4
11 15 43 26 70 28 73 111 290 138 365 14 36 31 79 39 97 8 17 15 36 15 42 0 6
4 19 10 29 5 9 14 29 20 45 9 26 11 27 90 27 78 0 80 -1 86 -27z m1268 8 c148
-56 181 -220 64 -325 -23 -21 -38 -41 -32 -43 6 -2 30 -18 53 -35 109 -80 116
-260 14 -355 -62 -58 -118 -68 -383 -68 l-235 0 -3 423 -2 422 237 0 c208 0
244 -2 287 -19z m-5036 -35 c4 -19 -24 -83 -44 -101 -15 -14 -74 -104 -74
-114 0 -4 -9 -16 -20 -26 -11 -10 -20 -24 -20 -32 0 -7 -4 -13 -8 -13 -5 0
-19 -19 -32 -42 -13 -24 -29 -47 -37 -51 -7 -4 -13 -16 -13 -26 0 -11 -7 -21
-15 -25 -8 -3 -15 -10 -15 -16 0 -21 -36 -50 -62 -50 -26 0 -33 8 -29 37 1 7
35 62 76 124 41 61 75 113 75 116 0 3 14 22 30 43 17 21 30 40 30 43 0 10 62
101 89 130 28 31 64 33 69 3z m191 15 c8 -5 17 -31 21 -58 4 -41 8 -47 25 -44
11 3 76 5 144 5 109 1 125 -1 135 -17 9 -14 8 -20 -5 -27 -9 -6 -20 -21 -23
-35 -4 -14 -11 -25 -16 -25 -6 0 -10 -4 -10 -9 0 -15 -180 -284 -208 -311
l-26 -24 25 -7 c13 -4 40 -7 59 -8 20 -1 41 -6 48 -13 17 -17 15 -73 -3 -88
-21 -18 -19 -37 11 -75 25 -33 25 -34 5 -44 -31 -17 -37 -14 -90 40 -28 28
-55 48 -61 44 -5 -3 -10 -22 -10 -40 0 -37 -26 -60 -54 -49 -13 5 -16 25 -16
108 0 111 6 126 53 126 22 0 28 4 25 18 -2 12 -16 18 -48 22 l-45 5 -7 220
c-4 121 -5 232 -2 247 8 40 43 58 73 39z m669 -22 c3 -22 -2 -27 -30 -35 -28
-9 -33 -14 -33 -42 0 -44 -27 -61 -98 -62 -75 0 -89 -8 -129 -76 -18 -31 -41
-68 -50 -83 -9 -14 -26 -44 -38 -66 -12 -22 -38 -64 -57 -92 -32 -49 -38 -53
-74 -53 -32 0 -39 3 -39 20 0 24 20 61 38 73 6 4 12 17 12 28 0 11 7 22 15 25
8 4 15 10 15 15 0 5 20 38 45 75 25 36 45 67 45 69 0 2 18 30 40 63 25 38 48
62 64 66 18 4 24 11 19 22 -5 13 -16 15 -67 10 -34 -4 -104 -9 -158 -12 -95
-6 -96 -6 -100 17 -2 14 4 33 16 47 20 22 20 22 290 20 l271 -3 3 -26z m112
19 c0 -21 -24 -78 -32 -78 -5 0 -13 -10 -18 -22 -12 -28 -27 -53 -61 -98 -14
-19 -29 -43 -32 -52 -4 -10 -11 -18 -17 -18 -5 0 -10 -6 -10 -12 0 -24 -141
-223 -163 -231 -16 -6 -25 -3 -34 9 -11 15 -9 24 11 58 24 40 208 321 223 341
5 6 17 27 28 48 20 39 55 66 88 67 9 0 17 -5 17 -12z m161 -9 c14 -26 8 -207
-7 -217 -6 -4 -13 -15 -17 -24 -8 -22 -33 -23 -41 -2 -10 26 -7 224 4 245 14
25 46 24 61 -2z m247 -14 c2 -17 -2 -33 -10 -40 -8 -5 -17 -17 -21 -25 -4 -8
-16 -28 -27 -45 -11 -16 -24 -40 -30 -52 -5 -13 -14 -23 -19 -23 -5 0 -12 -11
-15 -25 -4 -14 -11 -25 -16 -25 -6 0 -10 -7 -10 -15 0 -9 -7 -18 -15 -21 -8
-4 -15 -12 -15 -19 0 -8 -6 -20 -13 -27 -7 -7 -24 -31 -37 -53 -62 -102 -106
-133 -149 -106 -11 7 -8 19 15 62 16 30 31 56 34 59 12 12 50 70 50 77 1 4 14
19 30 33 17 13 30 28 30 33 0 5 13 26 28 46 16 20 32 43 36 51 7 16 21 38 50
85 45 69 98 85 104 30z m147 -220 c0 -232 -1 -250 -18 -253 -44 -9 -47 7 -47
252 0 244 3 260 45 254 19 -3 20 -10 20 -253z m-1435 226 c13 -25 13 -251 0
-285 -9 -25 -12 -26 -105 -26 -53 0 -105 4 -115 10 -17 9 -17 12 -4 40 9 16
19 30 24 30 4 0 11 8 14 18 13 34 37 72 47 72 5 0 9 8 9 19 0 10 7 24 15 31 8
7 15 18 15 25 0 7 7 15 15 19 8 3 15 12 15 20 0 14 36 46 52 46 4 0 12 -9 18
-19z m950 -174 l0 -172 -33 -37 c-49 -55 -57 -50 -57 35 0 77 -13 117 -26 82
-4 -11 -26 -46 -48 -80 -45 -67 -60 -89 -77 -123 -21 -38 -90 -44 -97 -8 -2
10 0 21 5 25 14 10 53 70 53 81 0 6 7 13 15 16 8 4 15 17 15 30 0 15 6 24 15
24 8 0 15 5 15 11 0 6 14 30 30 54 17 24 30 49 30 55 0 6 7 13 15 16 8 4 15
17 15 30 0 14 6 24 14 24 8 0 18 10 22 22 11 37 71 101 85 92 5 -3 9 -83 9
-177z m398 -70 l2 -217 -25 -12 c-41 -18 -50 0 -53 112 -3 78 -7 98 -17 93 -8
-2 -38 -43 -67 -91 -66 -107 -92 -134 -121 -130 -26 4 -36 46 -15 63 14 11 34
40 45 65 3 8 19 31 35 51 15 20 28 44 28 53 0 9 4 16 9 16 9 0 28 29 50 78 6
12 15 22 21 22 5 0 10 6 10 14 0 7 7 19 15 26 8 7 15 21 15 31 0 11 7 19 15
19 9 0 18 7 22 15 3 9 11 14 17 12 8 -2 12 -71 14 -220z m4263 34 c104 -45
168 -145 169 -263 l0 -38 -219 0 c-145 0 -222 -4 -226 -11 -13 -21 6 -77 38
-112 41 -43 105 -59 172 -45 35 8 53 19 82 54 34 43 38 45 82 42 39 -3 46 -7
49 -25 5 -35 -56 -107 -122 -143 -52 -29 -67 -33 -140 -33 -126 -1 -215 49
-266 150 -21 41 -25 62 -25 143 0 82 3 102 25 144 26 51 114 136 140 136 9 0
20 4 26 9 26 26 148 21 215 -8z m393 23 c11 -4 16 -19 16 -50 0 -24 4 -44 10
-44 5 0 27 15 47 33 51 44 84 59 130 61 l38 1 3 -56 3 -56 -48 -7 c-62 -8
-105 -35 -139 -86 -26 -39 -27 -47 -33 -218 l-6 -177 -39 -3 c-22 -2 -50 -1
-63 2 l-23 6 0 294 c0 226 3 296 13 299 18 8 73 8 91 1z m702 -30 c55 -26 108
-89 102 -121 -2 -14 -14 -19 -58 -21 -52 -3 -57 -1 -83 30 -26 31 -32 33 -100
36 -67 4 -76 2 -103 -21 -26 -23 -27 -27 -15 -49 15 -30 66 -54 141 -67 134
-23 208 -58 235 -110 44 -86 -13 -188 -126 -226 -75 -25 -208 -24 -269 2 -66
30 -105 66 -119 114 -16 53 -7 63 61 64 44 0 54 -3 63 -22 22 -44 48 -62 100
-73 68 -14 137 2 160 37 21 31 16 51 -15 75 -24 17 -164 58 -202 58 -28 0 -91
32 -125 64 -30 27 -33 35 -33 89 0 73 21 106 88 138 92 45 207 46 298 3z m650
0 c85 -40 88 -50 94 -262 4 -159 7 -185 22 -193 30 -17 48 -40 48 -62 0 -40
-15 -51 -74 -51 -46 -1 -59 3 -83 27 -16 15 -33 27 -38 27 -4 0 -33 -12 -64
-27 -97 -46 -241 -33 -301 27 -48 48 -61 110 -36 171 26 62 76 90 196 109 157
26 173 30 191 46 25 23 24 66 -2 90 -17 16 -37 19 -106 19 -92 0 -80 6 -144
-72 -6 -8 -33 -13 -64 -13 -51 0 -55 2 -55 23 0 55 54 119 125 148 87 35 208
32 291 -7z m368 30 c10 -4 16 -18 16 -35 0 -22 5 -29 19 -29 11 0 26 6 33 14
73 72 227 67 293 -10 25 -29 30 -29 58 -3 44 41 99 63 162 64 79 0 136 -25
172 -78 l28 -40 3 -238 4 -238 -25 -6 c-13 -4 -41 -5 -63 -3 l-39 3 -5 215
c-6 267 -13 283 -123 282 -47 -1 -83 -24 -109 -70 -15 -27 -18 -62 -20 -229
l-3 -198 -39 -3 c-22 -2 -50 -1 -63 2 l-23 6 0 201 c0 260 -11 289 -110 289
-48 0 -86 -19 -115 -58 -18 -25 -20 -46 -23 -227 -3 -139 -7 -202 -15 -207 -7
-4 -29 -8 -49 -8 -72 0 -68 -20 -68 305 0 225 3 295 13 298 18 8 73 8 91 1z
m1355 -32 c84 -42 91 -62 91 -267 l0 -170 36 -30 c32 -27 36 -35 30 -62 -7
-28 -12 -33 -51 -38 -53 -8 -84 1 -108 31 -18 23 -67 34 -67 15 0 -18 -96 -45
-165 -45 -151 -1 -239 90 -206 213 18 67 65 97 181 117 41 7 101 18 134 23 91
16 120 59 77 112 -18 22 -27 24 -106 24 l-87 0 -37 -42 c-34 -40 -40 -43 -89
-43 -49 0 -52 1 -52 25 0 140 250 221 419 137z m-9085 -121 c10 -16 18 -110
11 -131 -4 -14 -15 -20 -35 -20 -30 0 -33 5 -42 65 -3 17 -12 20 -65 23 l-61
3 -38 -46 c-33 -41 -41 -46 -73 -43 -32 3 -36 6 -34 30 1 15 11 36 22 47 11
11 27 34 36 50 l16 31 129 0 c71 0 131 -4 134 -9z m493 -198 c27 -6 67 -48 58
-62 -9 -16 -54 -13 -72 5 -16 16 -68 16 -68 -1 0 -5 14 -12 31 -15 17 -4 48
-15 70 -26 33 -16 39 -24 42 -55 4 -53 -31 -79 -109 -79 -46 0 -63 5 -85 23
-18 16 -25 30 -21 40 9 24 54 22 67 -3 17 -32 80 -24 80 10 0 21 -19 30 -63
30 -58 0 -105 66 -79 108 11 16 92 42 112 35 8 -3 25 -8 37 -10z m-813 -3 c49
-11 57 -24 50 -76 -4 -26 -2 -44 5 -48 16 -10 13 -58 -5 -81 -13 -18 -27 -20
-117 -20 l-102 0 -3 104 c-2 67 1 108 9 117 13 16 102 19 163 4z m321 -15 c0
-17 -8 -20 -50 -23 -75 -4 -95 -10 -89 -27 4 -10 20 -15 48 -15 60 0 87 -10
84 -29 -2 -12 -19 -17 -68 -21 -53 -4 -65 -8 -68 -24 -6 -27 15 -36 84 -36 66
0 80 -6 63 -27 -15 -17 -190 -18 -207 -1 -8 8 -12 47 -12 110 0 118 0 119 125
115 83 -2 90 -4 90 -22z m745 12 c18 -14 90 -152 90 -172 0 -7 7 -16 16 -19
13 -5 14 -9 4 -21 -19 -22 -39 -18 -78 16 -30 26 -41 30 -71 25 -22 -3 -44
-16 -57 -32 -13 -16 -29 -25 -40 -22 -24 4 -30 44 -11 66 8 9 25 43 37 75 37
89 71 115 110 84z m251 -45 c15 -30 30 -56 33 -59 2 -3 10 15 16 38 15 55 36
79 69 79 45 0 49 -9 52 -119 2 -90 1 -104 -15 -113 -29 -16 -46 -2 -46 40 0
55 -11 59 -30 10 -19 -53 -63 -75 -86 -43 -8 10 -14 29 -14 43 0 13 -4 20 -10
17 -5 -3 -10 -17 -10 -30 0 -31 -35 -52 -56 -34 -10 8 -14 36 -14 108 0 107 7
124 54 119 24 -2 34 -12 57 -56z m367 42 c12 -8 22 -23 22 -33 0 -10 7 -24 15
-31 8 -7 15 -20 15 -29 0 -9 5 -22 10 -27 6 -6 19 -27 29 -47 18 -36 18 -38 1
-47 -26 -14 -25 -14 -65 21 -31 27 -41 31 -73 25 -23 -3 -44 -15 -55 -31 -21
-28 -39 -32 -56 -11 -9 11 -4 31 25 92 64 135 83 153 132 118z m-4368 -3061
c14 -7 37 -13 52 -13 15 0 29 -4 33 -9 3 -5 18 -12 34 -16 16 -3 35 -13 42
-21 6 -8 20 -14 29 -14 10 0 20 -3 22 -7 2 -5 22 -21 46 -37 77 -52 232 -214
232 -242 0 -3 14 -26 30 -51 17 -24 30 -52 30 -61 0 -9 7 -26 15 -36 8 -11 15
-30 15 -43 0 -13 7 -38 16 -54 12 -24 15 -65 15 -194 0 -129 -3 -170 -15 -194
-9 -16 -16 -40 -16 -51 0 -12 -6 -36 -14 -53 -8 -18 -17 -39 -20 -47 -27 -66
-107 -180 -171 -245 -65 -64 -179 -144 -245 -171 -8 -3 -29 -12 -47 -20 -17
-8 -41 -14 -53 -14 -11 0 -34 -7 -51 -15 -43 -23 -345 -23 -388 0 -17 8 -39
15 -50 15 -19 0 -76 21 -111 41 -8 5 -36 19 -62 33 -53 28 -89 58 -168 137
-83 84 -110 116 -110 127 0 6 -6 17 -12 24 -7 7 -20 29 -29 48 -9 19 -26 56
-38 81 -11 25 -21 57 -21 71 0 13 -5 29 -11 35 -16 16 -24 275 -11 338 26 126
60 210 120 306 19 30 88 116 112 139 50 49 149 124 180 136 8 3 22 10 30 15
36 22 88 42 129 50 25 5 48 13 51 19 13 22 366 16 410 -7z m5670 -393 c18 -36
30 -70 50 -140 12 -41 25 -84 30 -95 5 -11 25 -74 45 -140 20 -66 42 -136 50
-155 7 -19 16 -47 19 -62 13 -57 43 -23 75 82 13 41 26 84 31 95 4 11 25 74
45 140 21 66 44 134 51 152 8 17 14 38 14 47 0 9 9 35 20 56 20 40 21 40 80
40 32 0 61 -4 64 -8 2 -4 -40 -140 -95 -302 -55 -162 -104 -308 -109 -325 -9
-31 -23 -74 -46 -135 -7 -19 -16 -45 -19 -57 -6 -21 -12 -23 -85 -23 -94 0
-83 -14 -145 177 -25 76 -49 147 -54 158 -30 71 -162 495 -156 505 10 17 126
9 135 -10z m996 12 c7 -4 28 -50 49 -102 56 -146 64 -167 79 -207 8 -21 28
-74 46 -118 18 -44 38 -97 46 -117 17 -45 38 -102 60 -160 9 -24 22 -58 30
-76 25 -60 22 -63 -58 -60 l-71 3 -37 99 c-25 65 -44 102 -56 107 -23 9 -296
11 -319 3 -16 -7 -33 -42 -70 -149 l-21 -60 -72 -3 c-78 -3 -80 -1 -57 50 8
18 30 76 50 128 20 52 43 109 51 127 7 17 14 38 14 46 0 9 5 19 10 22 6 3 10
14 10 23 0 9 7 30 15 46 8 15 15 33 15 38 0 6 7 24 15 41 17 37 104 262 112
292 9 30 22 35 88 35 33 0 65 -4 71 -8z m1289 -12 c84 -40 135 -109 135 -185
0 -65 -51 -148 -103 -168 -13 -6 40 -56 59 -57 13 0 42 -40 60 -81 45 -102 10
-238 -74 -289 -73 -44 -115 -50 -364 -50 l-238 0 0 418 c0 230 3 422 8 426 4
4 115 6 247 4 178 -3 248 -8 270 -18z m771 2 c129 -34 224 -121 235 -217 l4
-30 -68 -3 -68 -3 -13 33 c-45 105 -200 152 -314 94 -80 -41 -116 -93 -138
-202 -13 -64 -14 -87 -4 -143 23 -123 69 -189 160 -230 121 -55 259 7 300 134
7 22 17 46 23 53 11 14 95 16 116 3 33 -21 -34 -178 -100 -237 -113 -100 -296
-112 -454 -30 -45 23 -109 94 -144 159 -55 106 -62 290 -14 394 87 188 278
278 479 225z m765 8 c10 -6 19 -19 19 -30 0 -10 4 -21 9 -24 5 -3 12 -18 15
-33 4 -16 13 -41 20 -58 8 -16 22 -50 31 -75 10 -25 23 -61 31 -80 7 -19 29
-78 49 -130 20 -52 40 -104 44 -115 5 -11 26 -67 47 -125 20 -58 41 -109 46
-114 4 -6 8 -20 8 -33 0 -22 -4 -23 -68 -23 l-69 0 -16 38 c-8 20 -25 65 -37
100 -13 34 -31 67 -41 72 -23 13 -290 13 -322 1 -13 -5 -27 -20 -30 -33 -3
-13 -15 -48 -27 -78 -12 -30 -24 -65 -27 -77 -5 -21 -11 -23 -80 -23 -72 0
-74 1 -68 23 4 12 11 26 16 32 5 5 9 16 9 25 0 8 6 27 14 42 8 15 17 40 21 57
4 17 11 33 16 36 5 4 9 14 9 23 1 9 9 35 20 57 11 22 19 46 20 53 0 7 4 20 10
30 5 9 26 60 45 112 20 52 43 112 51 133 8 20 21 56 30 80 8 23 22 55 30 70 8
16 14 35 14 42 0 8 8 19 18 24 22 14 118 14 143 1z m-9513 -3654 c15 -7 44
-16 65 -20 48 -9 201 -88 247 -127 113 -97 199 -199 230 -270 5 -13 14 -31 18
-39 29 -52 42 -85 42 -108 1 -15 7 -38 15 -52 11 -19 14 -66 14 -195 0 -129
-3 -176 -14 -195 -8 -14 -14 -37 -15 -51 0 -14 -7 -34 -15 -45 -8 -10 -15 -29
-15 -40 0 -12 -7 -27 -15 -34 -8 -6 -17 -22 -21 -33 -6 -22 -74 -114 -129
-176 -37 -41 -167 -140 -215 -163 -67 -32 -105 -47 -140 -53 -19 -4 -40 -11
-46 -16 -18 -14 -262 -22 -329 -10 -79 13 -155 33 -182 49 -12 6 -28 12 -37
12 -8 0 -16 4 -18 8 -1 4 -24 19 -50 32 -72 39 -159 115 -233 203 -48 58 -132
217 -141 266 -4 20 -12 42 -18 50 -16 21 -15 376 2 393 6 6 12 23 12 36 0 22
18 69 58 152 9 19 19 37 22 40 3 3 19 25 35 49 49 73 196 214 235 226 11 4 20
10 20 15 0 5 14 11 30 15 17 4 30 11 30 16 0 5 12 12 27 15 15 4 38 13 52 20
14 8 35 14 46 14 11 1 31 7 45 15 35 20 349 21 388 1z m5722 -476 c15 -47 38
-119 50 -160 13 -41 43 -134 67 -207 24 -73 43 -138 43 -145 0 -7 4 -19 9 -27
19 -29 39 11 96 187 32 97 63 193 70 212 7 19 20 60 30 90 9 30 24 74 32 98
l16 42 68 0 c38 0 69 -3 69 -7 0 -5 -32 -100 -70 -213 -39 -113 -80 -234 -91
-270 -12 -36 -25 -74 -30 -85 -5 -11 -26 -72 -47 -135 -20 -63 -41 -121 -45
-127 -5 -9 -34 -13 -82 -13 l-74 0 -21 46 c-11 26 -20 53 -20 60 0 7 -6 28
-14 46 -15 35 -62 172 -76 223 -11 40 -29 92 -46 133 -8 18 -14 40 -14 50 0 9
-6 29 -14 44 -8 15 -17 41 -21 59 -4 19 -11 40 -15 49 -11 24 -40 116 -40 129
0 8 22 11 71 9 l71 -3 28 -85z m985 68 c7 -24 29 -83 51 -135 8 -17 14 -37 14
-45 0 -8 4 -18 8 -23 7 -9 17 -34 68 -167 8 -21 21 -57 30 -80 9 -24 23 -61
31 -83 8 -22 21 -53 27 -70 40 -93 76 -194 76 -209 0 -15 -9 -16 -72 -14 l-72
3 -35 100 c-19 55 -39 103 -45 107 -6 5 -85 7 -176 5 l-165 -2 -17 -35 c-9
-19 -22 -48 -27 -65 -5 -16 -16 -48 -24 -70 l-15 -40 -63 -3 c-75 -4 -87 5
-65 49 9 18 16 37 16 43 0 6 6 22 13 36 8 14 16 34 19 45 4 11 15 43 26 70 28
73 111 290 138 365 14 36 31 79 39 97 8 17 15 36 15 42 0 6 4 19 10 29 5 9 14
29 20 45 9 26 11 27 89 27 74 0 80 -2 86 -22z m962 -23 c8 -22 17 -51 20 -65
3 -14 9 -29 13 -35 4 -5 13 -26 18 -45 6 -19 27 -80 47 -135 20 -55 40 -113
45 -130 24 -86 68 -190 79 -190 12 0 32 43 51 110 4 17 18 57 30 90 11 33 25
74 30 90 5 17 25 75 45 130 20 55 40 115 45 133 4 19 14 47 20 63 l13 30 101
-3 101 -3 0 -420 0 -420 -67 -3 -68 -3 0 274 c0 274 -4 341 -22 335 -8 -3 -48
-106 -78 -203 -5 -16 -14 -39 -19 -50 -5 -11 -19 -49 -31 -85 -12 -36 -26 -74
-31 -85 -5 -11 -13 -33 -18 -50 -6 -16 -18 -52 -28 -80 l-19 -50 -56 -3 c-64
-3 -63 -4 -96 93 -11 33 -37 105 -57 160 -20 55 -40 111 -45 125 -44 130 -72
197 -87 208 -17 12 -18 0 -23 -285 l-5 -298 -62 -3 -63 -3 0 426 0 426 101 -3
101 -3 15 -40z m2751 -377 l-3 -423 -55 0 c-47 0 -55 3 -58 20 -7 45 -11 46
-58 9 -47 -35 -48 -35 -128 -31 -168 8 -257 82 -286 240 -36 198 81 362 260
362 58 0 129 -25 165 -58 10 -9 24 -16 30 -14 6 2 11 63 13 160 l3 157 59 0
60 0 -2 -422z m300 365 l-3 -58 -48 -3 c-27 -2 -55 2 -63 9 -14 12 -20 90 -7
102 3 4 33 7 65 7 l59 0 -3 -57z m710 0 l-3 -58 -39 -3 c-22 -2 -50 -1 -63 2
-21 6 -23 12 -23 61 l0 55 65 0 66 0 -3 -57z m-7276 -128 c40 -42 70 -65 85
-65 12 0 46 14 75 31 29 17 70 34 90 36 32 5 41 1 67 -28 17 -18 31 -39 31
-46 0 -13 -73 -64 -149 -104 -50 -25 -70 -19 -111 36 -24 31 -80 65 -111 65
-19 0 -101 -31 -119 -45 -39 -31 -130 -75 -154 -75 -19 0 -41 15 -76 51 l-50
52 -65 -5 c-36 -3 -71 -11 -79 -17 -34 -28 -167 -91 -193 -91 -54 0 -103 53
-83 90 6 11 15 20 19 20 11 0 171 88 191 106 8 7 36 15 61 19 59 9 105 -11
138 -60 35 -52 84 -49 183 10 42 25 80 45 86 45 6 0 16 9 22 20 8 14 21 20 45
20 30 0 44 -9 97 -65z m4744 -84 c34 -13 59 -32 82 -61 l32 -42 0 -173 0 -173
36 -27 c31 -24 35 -31 30 -58 -4 -17 -12 -35 -19 -39 -19 -12 -104 -9 -119 5
-58 53 -51 52 -115 21 -113 -55 -267 -32 -325 48 -18 25 -23 46 -23 90 0 105
53 143 244 173 133 21 171 39 171 80 0 12 -9 33 -19 46 -18 22 -27 24 -105 24
l-86 0 -43 -47 c-44 -48 -64 -55 -114 -42 -60 16 14 153 91 170 17 3 36 10 41
14 30 24 166 19 241 -9z m388 23 c10 -4 16 -18 16 -40 0 -26 4 -34 18 -34 11
0 27 9 36 19 10 11 40 29 68 41 58 25 127 21 188 -10 91 -46 100 -80 100 -355
l0 -226 -57 3 -58 3 -6 195 c-3 107 -9 204 -13 215 -21 52 -32 65 -64 76 -71
23 -150 -5 -185 -66 -8 -12 -14 -96 -17 -220 l-5 -200 -44 -3 c-25 -2 -55 -1
-68 3 l-23 5 0 294 c0 272 1 295 18 299 27 7 79 8 96 1z m1434 -301 l2 -303
-49 0 c-87 0 -81 -24 -81 305 0 225 3 295 13 299 6 3 35 4 62 3 l50 -2 3 -302z
m246 301 c11 -4 16 -19 16 -50 0 -24 4 -44 10 -44 5 0 24 13 42 28 67 57 126
80 168 67 16 -5 20 -15 20 -54 0 -55 -12 -71 -56 -71 -39 0 -94 -22 -115 -47
-40 -45 -44 -66 -49 -248 l-5 -180 -44 -3 c-25 -2 -55 -1 -68 3 l-23 5 0 294
c0 226 3 296 13 299 18 8 73 8 91 1z m461 -299 l0 -300 -60 0 -60 0 -3 294
c-2 229 1 296 10 303 7 4 36 7 63 6 l50 -3 0 -300z m-11413 -3121 c15 -8 37
-14 49 -14 34 0 174 -72 244 -125 107 -81 208 -205 256 -315 6 -14 17 -37 25
-52 8 -14 14 -36 14 -48 0 -11 7 -34 15 -50 22 -43 22 -347 0 -389 -8 -17 -15
-40 -15 -53 0 -13 -7 -36 -15 -52 -8 -15 -15 -32 -15 -36 0 -30 -111 -191
-175 -255 -74 -73 -132 -115 -215 -155 -25 -12 -57 -28 -72 -36 -14 -8 -38
-14 -52 -14 -15 0 -38 -7 -51 -16 -19 -13 -56 -16 -199 -16 -144 0 -179 3
-198 16 -12 9 -35 16 -49 16 -24 0 -58 13 -109 42 -8 4 -27 13 -42 19 -16 6
-28 15 -28 20 0 5 -6 9 -13 9 -17 0 -68 41 -142 115 -99 99 -113 118 -160 215
-14 30 -30 62 -35 71 -5 9 -12 34 -16 55 -3 22 -12 45 -18 53 -16 20 -15 363
1 382 6 8 14 35 18 62 4 26 11 47 16 47 5 0 9 5 9 12 0 30 65 142 125 214 58
69 127 133 194 176 24 17 31 20 64 33 6 3 19 9 27 14 50 28 81 41 100 41 12 0
36 7 53 15 58 26 355 26 409 -1z m5678 -394 c15 -31 29 -66 43 -115 38 -128
120 -383 133 -413 8 -18 14 -40 14 -50 0 -27 15 -43 33 -37 9 4 27 42 43 93
15 48 33 101 40 119 8 17 14 36 14 42 0 14 58 194 77 238 7 17 13 39 13 50 1
10 9 34 18 53 17 34 19 35 80 38 49 2 64 0 68 -13 4 -8 2 -21 -4 -28 -5 -6
-13 -28 -17 -47 -4 -19 -11 -39 -15 -45 -4 -5 -11 -26 -15 -45 -4 -19 -11 -41
-16 -50 -7 -12 -74 -209 -160 -470 -6 -19 -18 -50 -25 -68 -8 -18 -14 -42 -14
-53 0 -12 -10 -23 -26 -29 -30 -12 -124 -13 -141 -2 -7 4 -34 75 -62 157 -27
83 -55 164 -60 180 -70 199 -161 491 -157 502 8 20 126 14 136 -7z m1004 4 c9
-8 16 -23 16 -33 0 -9 4 -21 8 -26 7 -9 17 -34 68 -167 33 -88 45 -119 89
-233 53 -137 69 -179 90 -235 8 -22 22 -58 31 -79 25 -61 16 -73 -58 -69 -71
3 -77 10 -118 137 -19 56 -30 75 -48 82 -32 12 -299 11 -323 -1 -10 -6 -19
-15 -19 -21 0 -6 -6 -25 -13 -42 -19 -45 -38 -98 -44 -124 -6 -24 -29 -33 -88
-33 -62 0 -72 11 -53 57 9 21 27 65 39 98 13 33 27 64 31 70 4 5 8 16 8 25 1
8 9 33 20 55 11 22 19 46 20 53 0 7 4 20 9 30 19 37 41 93 41 103 0 6 7 25 14
42 8 18 31 75 51 127 20 52 42 110 50 128 8 18 15 39 15 47 0 19 16 23 87 24
43 1 66 -4 77 -15z m1301 -17 c73 -40 90 -61 105 -123 12 -48 11 -61 -4 -109
-15 -50 -61 -105 -87 -105 -20 0 -7 -18 41 -53 84 -63 116 -162 85 -260 -25
-80 -62 -115 -160 -152 -44 -17 -79 -19 -285 -20 l-235 0 -3 415 c-1 228 0
421 3 429 4 11 50 12 248 9 242 -4 242 -4 292 -31z m461 -29 c21 -35 56 -92
79 -128 23 -36 45 -72 48 -80 4 -8 15 -27 25 -42 9 -15 50 -82 91 -149 66
-110 102 -159 116 -159 3 0 5 137 5 305 l0 305 23 6 c13 3 41 4 63 2 l39 -3 3
-419 c2 -329 0 -421 -10 -428 -20 -12 -113 -9 -130 5 -22 18 -61 76 -271 412
-77 124 -113 169 -128 159 -5 -3 -9 -133 -9 -289 0 -312 4 -295 -65 -295 -70
0 -65 -32 -65 429 0 230 3 421 7 424 3 4 37 7 74 7 l68 0 37 -62z m808 56 c14
-5 16 -52 16 -424 l0 -418 -22 -6 c-38 -10 -103 -7 -116 6 -9 9 -12 117 -12
423 0 227 3 415 7 418 8 9 106 9 127 1z m-6224 -149 c0 -10 -20 -14 -74 -17
-41 -2 -73 0 -70 3 6 11 -79 9 -92 -2 -8 -6 -14 -20 -14 -31 0 -10 -4 -16 -10
-13 -5 3 -10 23 -10 43 l0 37 135 -3 c106 -2 135 -6 135 -17z m-400 -6 c0 -18
-3 -19 -15 -9 -8 7 -22 10 -30 6 -8 -3 -15 0 -15 6 0 6 -9 1 -20 -12 -11 -13
-20 -29 -20 -37 0 -8 -4 -11 -10 -8 -5 3 -10 22 -10 41 l0 34 60 0 c54 0 60
-2 60 -21z m386 -162 c11 4 14 -11 14 -78 0 -45 -3 -79 -7 -75 -5 4 -8 34 -8
66 0 43 -5 64 -20 81 -11 13 -13 19 -6 12 7 -6 20 -9 27 -6z m-124 -24 c-3
-16 -7 -22 -10 -15 -4 13 4 42 11 42 2 0 2 -12 -1 -27z m-362 -93 c11 0 20
-39 10 -45 -11 -7 -11 -87 1 -101 12 -15 1 -44 -17 -44 -11 0 -14 22 -13 113
1 61 3 104 6 95 2 -10 8 -18 13 -18z m40 -70 c0 -5 -7 -7 -15 -4 -8 4 -15 8
-15 10 0 2 7 4 15 4 8 0 15 -4 15 -10z m270 -70 c0 -11 -1 -20 -3 -20 -1 0
-10 9 -20 20 -16 19 -16 20 3 20 13 0 20 -7 20 -20z m54 -35 c3 -8 1 -15 -3
-15 -5 0 -11 7 -15 15 -3 8 -1 15 3 15 5 0 11 -7 15 -15z m136 -25 c0 -25 -34
-27 -58 -3 -13 13 -14 16 -2 11 8 -3 24 -2 35 3 11 4 21 8 23 8 1 1 2 -8 2
-19z m-344 1 c-4 -5 0 -12 6 -14 7 -3 0 -6 -15 -6 -24 -1 -26 1 -15 14 14 16
33 21 24 6z m239 -11 c3 -5 1 -10 -4 -10 -6 0 -11 5 -11 10 0 6 2 10 4 10 3 0
8 -4 11 -10z m-2960 -3011 c22 -5 57 -14 78 -20 21 -5 45 -13 55 -18 9 -6 52
-27 96 -48 43 -21 81 -43 83 -50 3 -7 9 -13 14 -13 29 0 202 -197 237 -270 6
-14 16 -32 21 -40 29 -51 41 -81 41 -105 0 -14 7 -39 15 -56 23 -43 23 -345 0
-388 -8 -17 -15 -39 -15 -50 0 -19 -21 -77 -41 -111 -5 -8 -17 -31 -27 -51
-25 -48 -120 -167 -164 -204 -19 -17 -48 -41 -64 -55 -51 -44 -193 -115 -251
-126 -21 -4 -47 -13 -58 -20 -29 -19 -341 -18 -379 1 -15 8 -43 17 -63 21 -20
4 -48 13 -62 20 -14 8 -31 14 -38 14 -6 0 -13 3 -15 8 -1 4 -25 18 -52 32 -54
27 -77 46 -164 131 -76 75 -143 166 -168 229 -3 8 -14 33 -25 56 -10 23 -19
52 -19 66 0 13 -6 30 -13 37 -16 16 -17 371 -1 392 6 8 14 30 18 49 7 39 32
97 83 189 49 90 198 234 289 281 27 14 51 28 52 33 2 4 9 7 15 7 7 0 25 7 41
15 16 9 48 20 70 26 23 6 55 14 71 19 43 12 293 11 340 -1z m5715 -392 c0 -1
13 -41 29 -87 16 -47 36 -110 45 -140 44 -147 90 -288 102 -318 8 -18 14 -40
14 -50 0 -9 4 -24 10 -32 13 -22 46 12 55 57 3 19 10 43 15 52 5 9 25 70 46
136 20 66 43 134 50 152 8 17 14 37 14 45 0 7 14 51 30 98 17 46 30 85 30 87
0 2 32 3 70 3 39 0 70 -3 70 -7 0 -5 -32 -100 -70 -213 -39 -113 -80 -234 -91
-270 -12 -36 -28 -79 -35 -97 -8 -17 -14 -40 -14 -50 0 -10 -4 -23 -9 -28 -4
-6 -19 -44 -32 -85 -12 -41 -27 -81 -32 -87 -6 -9 -36 -13 -83 -13 l-73 0 -21
46 c-11 26 -20 53 -20 60 0 7 -6 28 -14 46 -8 18 -23 62 -35 98 -23 76 -38
119 -80 240 -7 19 -17 49 -21 65 -5 17 -27 84 -49 149 -23 66 -41 126 -41 133
0 9 19 13 70 13 39 0 70 -1 70 -3z m1043 -102 c21 -55 52 -134 69 -175 16 -41
36 -92 44 -112 8 -21 21 -57 30 -80 37 -97 44 -117 79 -208 19 -52 40 -103 45
-112 6 -10 10 -27 10 -38 0 -19 -5 -21 -72 -18 l-72 3 -22 60 c-11 33 -24 69
-28 80 -4 11 -13 31 -19 45 l-13 25 -169 0 -170 0 -22 -45 c-12 -25 -22 -51
-22 -58 -1 -8 -7 -28 -15 -45 -8 -18 -17 -40 -20 -50 -5 -15 -16 -17 -73 -15
-54 2 -68 6 -66 18 2 15 26 88 42 125 16 36 28 70 142 370 39 103 59 153 75
192 8 17 14 36 14 42 0 6 4 19 10 29 5 9 14 30 20 45 10 28 11 28 87 25 l77
-3 39 -100z m1235 86 c89 -31 144 -104 141 -188 -1 -57 -42 -128 -87 -152 -26
-14 -28 -28 -4 -35 9 -3 33 -21 54 -39 100 -89 97 -273 -7 -352 -71 -55 -133
-65 -386 -65 l-229 0 0 425 0 425 233 0 c201 0 240 -3 285 -19z m844 -2 c104
-40 140 -95 139 -214 0 -88 -18 -134 -68 -173 -40 -33 -41 -43 -4 -74 43 -37
59 -83 67 -193 3 -55 13 -113 21 -128 7 -15 11 -32 8 -37 -8 -13 -132 -13
-140 0 -3 6 -10 51 -16 102 -13 129 -24 161 -65 197 l-35 32 -147 -3 -147 -3
-5 -165 -5 -165 -67 -3 -68 -3 0 426 0 425 239 0 c218 0 244 -2 293 -21z m433
-404 l0 -420 -70 0 -70 0 -3 410 c-1 225 0 416 3 423 3 9 24 12 72 10 l68 -3
0 -420z m-9230 -3241 c11 -8 29 -14 41 -14 40 0 193 -81 264 -140 23 -19 48
-38 55 -42 21 -12 120 -140 151 -193 15 -27 32 -51 36 -53 4 -2 8 -12 8 -22 0
-10 7 -31 15 -46 8 -16 15 -38 15 -49 0 -11 7 -33 16 -50 22 -43 22 -334 0
-387 -9 -21 -16 -48 -16 -61 0 -13 -7 -32 -15 -43 -8 -10 -15 -29 -15 -41 0
-12 -4 -23 -8 -25 -5 -1 -22 -28 -40 -58 -48 -84 -167 -220 -192 -220 -5 0
-10 -3 -10 -8 0 -9 -123 -92 -160 -107 -8 -4 -30 -13 -48 -21 -18 -8 -42 -14
-53 -14 -11 0 -34 -7 -51 -16 -44 -23 -359 -23 -403 0 -16 9 -41 16 -55 16
-14 0 -34 7 -44 15 -11 8 -27 15 -37 15 -9 0 -22 7 -29 15 -7 8 -18 15 -26 15
-23 0 -212 143 -213 162 -1 4 -20 27 -43 52 -23 26 -47 56 -54 69 -51 93 -86
171 -91 204 -3 21 -11 44 -17 52 -7 9 -11 76 -11 191 0 115 4 182 11 191 6 8
14 31 17 52 5 33 40 111 91 204 7 13 31 43 54 69 23 25 42 48 43 52 2 23 199
165 259 187 8 4 28 13 43 21 16 7 41 14 56 14 14 0 36 7 47 15 38 26 371 25
409 -1z m5675 -394 c15 -31 29 -66 43 -115 29 -99 119 -381 132 -415 7 -19 16
-48 20 -63 4 -20 11 -27 23 -25 12 2 26 31 46 93 16 50 35 104 43 122 7 17 13
38 13 47 0 9 4 24 9 34 5 9 20 51 32 92 12 41 28 89 35 107 8 17 14 38 14 46
0 35 31 87 56 93 25 6 101 0 110 -9 6 -5 -25 -106 -36 -122 -4 -5 -11 -26 -15
-45 -4 -19 -11 -41 -16 -50 -7 -12 -74 -209 -160 -470 -6 -19 -18 -50 -25 -68
-8 -18 -14 -42 -14 -53 0 -12 -10 -23 -26 -29 -30 -12 -124 -13 -139 -2 -14 9
-36 66 -74 187 -17 55 -38 116 -45 135 -7 19 -21 62 -31 95 -10 33 -24 74 -30
90 -37 94 -106 325 -100 334 10 18 126 10 135 -9z m988 14 c13 -4 25 -17 29
-32 3 -14 12 -37 19 -51 8 -14 14 -31 14 -38 0 -6 6 -24 14 -40 8 -15 21 -46
29 -68 21 -57 39 -104 91 -236 25 -64 46 -119 46 -123 0 -5 6 -22 14 -39 7
-18 20 -50 29 -72 8 -22 23 -59 32 -82 26 -63 17 -75 -57 -71 -72 3 -72 4
-119 138 l-25 75 -179 0 -179 0 -7 -25 c-4 -14 -17 -50 -29 -80 -12 -30 -24
-65 -27 -77 -6 -24 -29 -33 -88 -33 -62 0 -72 11 -53 57 9 21 27 65 39 98 13
33 27 64 31 69 4 6 8 17 8 25 1 9 9 34 20 56 11 22 19 46 20 53 0 7 4 20 9 30
19 37 41 93 41 103 0 6 7 25 14 42 8 18 31 75 51 127 20 52 44 115 53 139 9
23 26 47 37 51 24 10 91 12 123 4z m1250 -18 c119 -44 196 -134 225 -261 15
-65 15 -226 0 -291 -22 -95 -75 -175 -145 -220 -80 -51 -118 -58 -343 -58
l-210 -1 -3 415 c-1 228 0 421 3 429 8 20 412 9 473 -13z m-5060 -174 c9 -5
32 -16 50 -25 19 -9 39 -17 45 -17 7 0 29 -9 50 -20 20 -11 45 -20 56 -20 10
0 21 -7 25 -15 3 -8 16 -15 30 -15 26 0 47 -19 24 -21 -32 -4 -334 4 -342 8
-4 3 -5 24 -2 47 11 70 13 81 15 84 3 5 32 1 49 -6z m5805 -73 c67 -26 106
-64 118 -115 4 -22 9 -107 9 -191 l0 -152 30 -21 c21 -15 30 -30 30 -48 0 -39
-11 -50 -50 -52 -61 -5 -76 -1 -115 30 -34 27 -40 29 -54 16 -49 -45 -202 -61
-276 -30 -51 21 -73 40 -96 86 -25 49 -24 84 4 133 29 52 86 83 173 95 192 26
224 38 224 90 0 38 -32 66 -83 74 -76 12 -167 -21 -167 -60 0 -21 -34 -34 -89
-34 -45 0 -51 3 -51 20 0 33 37 97 70 121 80 60 223 76 323 38z m405 -17 c4
-41 26 -51 55 -24 40 36 104 62 155 62 73 0 150 -43 182 -100 24 -44 25 -52
28 -269 4 -247 5 -241 -60 -241 -71 0 -68 -8 -68 197 0 262 -17 304 -122 305
-65 1 -88 -10 -125 -59 l-28 -36 -4 -198 -3 -198 -30 -6 c-16 -4 -45 -4 -64
-1 l-34 7 0 293 c0 161 3 296 7 300 4 4 30 6 58 4 49 -3 50 -4 53 -36z m923
24 c14 -7 37 -16 51 -19 15 -4 41 -26 59 -48 l33 -42 4 -179 4 -178 29 -21
c20 -14 29 -29 29 -47 0 -38 -11 -50 -45 -52 -63 -4 -83 1 -120 30 -34 27 -40
29 -54 16 -49 -45 -202 -61 -276 -30 -51 21 -73 40 -96 86 -25 49 -24 84 4
133 28 50 84 82 168 94 207 32 229 40 229 91 0 15 -10 36 -25 50 -22 21 -36
24 -94 24 -71 0 -116 -18 -128 -52 -12 -30 -37 -41 -90 -42 -47 0 -53 2 -53
20 0 33 37 97 70 121 16 12 51 30 77 40 59 21 187 25 224 5z m423 8 c10 -4 16
-18 16 -35 0 -32 19 -39 42 -15 77 76 233 72 296 -9 24 -30 33 -31 58 -4 33
37 109 69 164 69 68 0 139 -33 170 -79 25 -36 25 -39 28 -278 l4 -241 -32 -7
c-17 -4 -47 -4 -66 -1 l-34 7 0 214 0 215 -29 32 c-25 28 -35 32 -80 32 -60 0
-97 -23 -123 -75 -14 -28 -17 -66 -18 -225 0 -213 3 -204 -70 -204 -20 0 -42
6 -47 13 -6 6 -11 100 -12 210 -2 231 -9 260 -65 275 -51 15 -103 -1 -145 -42
l-36 -36 -3 -204 -4 -205 -30 -6 c-16 -4 -45 -4 -64 -1 l-34 7 0 293 c0 161 3
296 7 299 8 9 86 9 107 1z m1325 -15 c120 -45 161 -100 195 -259 8 -34 -22
-147 -49 -190 -36 -55 -60 -76 -120 -105 -46 -22 -70 -26 -138 -26 -97 0 -154
20 -215 76 -69 62 -86 105 -86 220 0 87 3 106 24 149 66 130 242 191 389 135z
m429 -16 c4 -41 28 -50 61 -20 70 63 164 74 252 30 41 -21 60 -39 79 -73 24
-43 25 -52 28 -263 3 -161 1 -221 -8 -232 -7 -9 -29 -15 -50 -15 -73 0 -70 -8
-71 199 0 111 -5 202 -12 225 -17 54 -55 80 -115 79 -60 -1 -83 -13 -119 -60
l-28 -36 -3 -198 -3 -198 -31 -6 c-16 -4 -45 -4 -64 -1 l-34 7 0 293 c0 161 3
296 7 300 4 4 30 6 58 4 48 -3 50 -4 53 -35z m-7683 -188 l0 -130 -42 -3 c-27
-2 -51 3 -65 12 -12 9 -43 16 -68 16 -25 1 -56 7 -70 15 -14 8 -46 14 -71 15
-25 0 -54 7 -65 15 -10 8 -38 15 -61 15 l-43 0 0 -38 c0 -21 -5 -43 -11 -49
-13 -13 -60 -7 -99 14 -14 7 -33 13 -42 13 -9 0 -19 4 -22 9 -3 5 -22 12 -43
16 -20 4 -46 13 -57 21 -11 8 -30 14 -41 14 -11 0 -29 7 -39 15 -11 8 -29 15
-40 15 -12 0 -30 7 -40 15 -11 8 -29 15 -41 15 -12 0 -30 7 -41 15 -10 8 -31
15 -45 15 -15 0 -32 6 -39 14 -6 8 -26 16 -43 18 -24 2 -32 8 -32 23 0 17 6
20 40 17 22 -2 47 -10 56 -18 9 -8 37 -14 71 -14 37 0 60 -5 68 -15 8 -10 31
-15 69 -15 35 0 65 -6 77 -15 11 -8 41 -15 71 -15 32 0 57 -6 67 -15 10 -10
35 -15 75 -15 l61 0 0 64 c0 42 4 66 13 69 6 3 120 5 252 4 l240 -2 0 -130z
m-1197 118 c-10 -2 -26 -2 -35 0 -10 3 -2 5 17 5 19 0 27 -2 18 -5z m-3305
-3308 c14 -7 41 -16 59 -20 48 -9 148 -54 203 -90 104 -69 259 -235 279 -302
4 -11 13 -27 21 -33 8 -7 15 -22 15 -34 0 -11 7 -30 15 -40 8 -11 15 -30 15
-43 0 -13 7 -37 15 -54 22 -42 22 -346 0 -389 -8 -16 -15 -38 -15 -49 0 -19
-22 -78 -41 -111 -5 -8 -15 -26 -21 -40 -20 -42 -121 -173 -157 -205 -19 -16
-51 -44 -70 -62 -42 -38 -208 -123 -265 -135 -23 -5 -63 -14 -91 -19 -68 -15
-330 -8 -347 9 -6 6 -23 12 -36 12 -32 0 -83 22 -206 89 -84 47 -225 193 -275
286 -12 22 -26 47 -30 55 -27 48 -51 110 -51 132 0 13 -6 30 -13 37 -16 16
-17 371 -1 392 6 8 15 32 19 53 3 22 13 49 21 60 8 11 14 26 14 33 0 18 69
130 96 156 13 12 24 26 24 30 0 10 93 100 140 137 18 14 53 36 79 50 25 14 48
28 49 33 2 4 9 7 15 7 7 0 24 6 38 14 14 7 43 16 65 20 21 5 44 11 49 16 18
14 57 18 211 18 107 0 160 -4 177 -13z m5710 -427 c8 -24 29 -88 46 -143 18
-55 48 -152 67 -215 20 -63 42 -130 50 -148 8 -18 14 -40 14 -50 0 -9 4 -24
10 -32 13 -22 46 12 55 57 3 19 10 43 15 52 7 14 29 80 126 386 9 28 23 69 31
93 l16 42 63 0 c34 0 65 -4 68 -8 3 -5 -26 -100 -65 -213 -38 -112 -79 -233
-90 -269 -12 -36 -28 -79 -35 -97 -8 -17 -14 -40 -14 -50 0 -10 -4 -23 -9 -28
-4 -6 -19 -44 -32 -85 -12 -41 -27 -81 -32 -87 -6 -9 -36 -13 -83 -13 l-74 0
-16 38 c-8 20 -31 87 -51 147 -19 61 -41 125 -49 143 -8 18 -14 39 -14 47 0 8
-6 29 -14 47 -17 41 -35 93 -46 133 -5 17 -27 82 -49 145 -22 63 -40 123 -41
133 0 15 10 17 69 17 l68 0 16 -42z m1030 -63 c21 -55 52 -134 69 -175 16 -41
36 -92 44 -112 8 -21 21 -57 30 -80 37 -97 44 -117 79 -208 19 -52 40 -103 45
-112 6 -10 10 -27 10 -38 0 -19 -5 -21 -72 -18 l-71 3 -37 99 c-20 54 -44 103
-53 108 -9 4 -87 7 -174 6 l-158 -3 -14 -30 c-8 -16 -26 -64 -41 -105 l-26
-75 -73 -3 c-83 -3 -80 -11 -41 88 12 30 25 66 30 80 5 14 17 48 28 75 11 28
36 95 57 150 21 55 46 119 56 142 11 23 19 46 19 51 0 5 7 23 15 38 8 16 15
37 15 46 0 9 4 19 9 22 5 3 12 18 15 33 4 16 13 42 21 58 7 17 16 38 19 48 5
15 16 17 83 15 l77 -3 39 -100z m869 88 c8 -10 55 -85 104 -166 49 -81 97
-160 106 -175 10 -15 22 -36 28 -47 6 -11 19 -33 30 -50 11 -16 24 -39 30 -50
17 -36 65 -98 77 -102 10 -4 13 63 15 299 l3 303 60 0 60 0 5 -100 c3 -55 4
-245 2 -422 l-3 -323 -70 0 c-61 0 -73 3 -90 23 -10 12 -18 25 -19 29 0 4 -19
35 -43 70 -24 35 -46 70 -50 78 -4 8 -29 49 -57 90 -27 41 -70 110 -95 152
-53 89 -100 142 -115 133 -6 -4 -10 -107 -10 -291 l0 -285 -62 3 -63 3 -3 410
c-1 225 0 416 3 422 8 21 138 17 157 -4z m813 -43 l0 -55 -39 -3 c-22 -2 -50
-1 -63 2 -20 6 -23 12 -23 55 0 57 5 61 75 58 l50 -2 0 -55z m-17 -186 l22 -6
0 -300 0 -299 -62 3 -63 3 -3 297 c-2 276 -1 297 15 301 27 7 66 7 91 1z
m1209 -33 c45 -26 73 -23 73 8 0 24 30 34 81 29 l34 -3 3 -326 c3 -367 1 -380
-71 -452 -94 -93 -309 -98 -425 -11 -26 21 -72 89 -72 108 0 10 71 18 103 12
23 -4 38 -15 45 -31 30 -66 193 -73 251 -11 38 41 62 196 31 196 -5 0 -24 -13
-42 -28 -52 -44 -109 -65 -164 -59 -136 13 -214 90 -236 232 -21 133 15 247
97 310 87 66 202 76 292 26z m-655 12 c27 -10 63 -33 81 -51 l32 -33 3 -184 3
-185 29 -20 c35 -25 44 -49 31 -84 -10 -24 -15 -26 -65 -26 -47 0 -60 4 -89
30 -38 33 -47 36 -64 19 -22 -22 -117 -49 -170 -49 -55 0 -125 22 -157 49 -26
23 -56 86 -56 119 0 38 23 93 47 113 32 27 95 46 213 64 85 13 121 23 138 38
44 41 17 100 -53 113 -74 14 -175 -16 -175 -51 0 -25 -45 -46 -92 -43 -36 3
-44 7 -46 26 -8 56 46 120 131 153 59 24 195 24 259 2z m1380 0 c27 -10 63
-33 81 -51 l32 -33 3 -184 3 -184 35 -26 c35 -27 42 -52 24 -86 -9 -15 -22
-19 -64 -19 -46 0 -59 4 -86 30 -35 32 -50 36 -67 19 -42 -42 -202 -63 -257
-34 -15 8 -34 15 -40 15 -31 0 -86 90 -86 138 0 38 23 93 47 113 32 27 95 46
213 64 122 19 160 38 160 79 -1 63 -92 93 -193 65 -27 -7 -44 -20 -59 -45 -22
-37 -46 -47 -99 -42 -28 2 -35 7 -37 30 -4 31 37 101 70 120 90 51 226 64 320
31z m-7555 -100 c50 -58 45 -63 -52 -63 -89 0 -88 -1 -138 58 -29 33 -13 42
76 42 l81 0 33 -37z m-2772 -3299 c11 -8 33 -14 50 -14 17 0 40 -7 51 -15 10
-8 24 -15 31 -15 17 0 134 -70 184 -110 63 -50 135 -127 173 -185 59 -89 106
-190 106 -227 1 -12 7 -34 15 -48 21 -37 21 -346 0 -386 -8 -16 -15 -40 -15
-52 0 -13 -6 -36 -14 -50 -8 -15 -19 -38 -25 -52 -61 -140 -192 -283 -340
-372 -25 -15 -53 -30 -61 -34 -8 -3 -28 -11 -45 -18 -54 -23 -118 -38 -205
-46 -108 -10 -276 -1 -310 17 -14 7 -36 13 -48 13 -13 0 -36 6 -50 14 -15 7
-56 28 -92 46 -36 17 -69 37 -75 43 -5 7 -30 28 -55 47 -53 42 -63 51 -115
114 -95 114 -146 227 -176 386 -13 65 -6 314 8 332 6 7 14 30 17 52 4 21 11
46 16 55 5 9 21 41 35 71 35 72 45 89 75 125 31 37 136 142 173 173 28 23 119
77 147 87 8 4 28 13 43 21 16 7 40 14 53 14 14 0 35 6 47 12 47 27 363 28 402
2z m5682 -386 c5 -7 25 -60 43 -118 18 -58 45 -143 60 -190 29 -90 90 -286 96
-308 2 -8 12 -12 21 -10 18 3 45 78 168 461 26 82 55 155 63 164 12 11 30 14
69 11 29 -3 56 -7 59 -11 6 -5 -18 -82 -36 -117 -4 -9 -11 -31 -15 -50 -4 -19
-11 -41 -16 -50 -7 -12 -74 -209 -160 -470 -6 -19 -18 -50 -25 -68 -8 -18 -14
-41 -14 -52 0 -29 -33 -41 -106 -38 l-66 3 -18 45 c-10 25 -34 95 -54 155 -19
61 -40 124 -46 140 -68 195 -160 491 -156 502 7 17 120 18 133 1z m991 6 c13
-4 25 -17 29 -32 3 -14 12 -37 19 -51 8 -14 14 -31 14 -38 0 -6 6 -24 14 -40
8 -15 21 -46 29 -68 8 -22 22 -58 30 -80 14 -35 43 -113 94 -250 8 -22 21 -53
29 -68 8 -16 14 -33 14 -39 0 -5 6 -24 14 -41 62 -144 61 -147 -22 -147 -41 0
-63 5 -72 15 -7 9 -27 57 -45 108 l-32 92 -178 0 -179 0 -7 -25 c-4 -14 -17
-50 -29 -80 -12 -30 -24 -64 -27 -75 -4 -11 -11 -23 -17 -27 -17 -12 -124 -9
-132 3 -3 6 1 27 9 47 8 21 26 64 38 97 13 33 27 64 31 69 4 6 8 16 8 24 0 7
8 32 19 55 10 23 33 83 51 132 18 50 36 99 41 110 4 11 25 63 44 115 20 52 44
115 53 139 9 23 26 47 37 51 24 10 91 12 123 4z m1283 -26 c112 -51 166 -166
135 -295 -16 -70 -35 -102 -79 -136 -57 -42 -95 -51 -262 -56 l-160 -6 -5
-165 -5 -165 -65 0 -65 0 -3 415 c-1 228 0 421 3 429 4 11 45 13 228 9 210 -5
225 -6 278 -30z m3259 -128 l5 -85 55 -5 55 -5 0 -40 0 -40 -45 -3 c-24 -2
-50 -8 -57 -14 -10 -8 -13 -58 -13 -193 l0 -182 24 -13 c13 -7 37 -12 53 -12
34 0 43 -12 43 -59 0 -30 -4 -38 -22 -43 -41 -11 -107 -6 -147 10 -71 28 -75
42 -81 279 l-5 210 -25 7 c-14 4 -37 10 -52 13 -24 5 -28 10 -28 39 0 36 12
46 55 46 51 0 55 7 55 89 0 43 3 81 7 85 4 4 32 6 63 4 l55 -3 5 -85z m-2629
-110 c65 -26 110 -60 142 -108 27 -41 51 -132 46 -172 l-4 -25 -220 -5 -220
-5 -3 -30 c-4 -45 46 -111 95 -124 90 -25 167 -5 205 53 21 33 27 36 71 36 58
0 69 -17 42 -67 -46 -85 -141 -135 -255 -136 -165 -1 -273 98 -287 261 -10
119 28 218 109 282 74 58 190 75 279 40z m427 -32 c4 -54 15 -55 67 -7 36 34
94 59 135 59 l30 0 0 -60 0 -60 -33 0 c-50 0 -118 -39 -152 -88 -30 -43 -30
-43 -33 -215 -3 -113 -8 -175 -16 -179 -6 -4 -28 -8 -48 -8 -72 0 -68 -20 -68
304 0 161 3 296 7 300 4 4 30 6 58 4 l50 -3 3 -47z m432 17 c4 -21 11 -31 28
-33 12 -2 22 2 22 8 0 18 102 60 146 60 52 0 129 -34 150 -66 21 -31 28 -30
65 4 45 42 119 66 182 59 70 -7 109 -29 143 -79 l29 -41 3 -238 4 -238 -25 -6
c-13 -4 -41 -5 -63 -3 l-39 3 -5 215 c-6 263 -13 281 -108 282 -69 0 -83 -6
-112 -49 -24 -35 -25 -43 -30 -242 l-5 -206 -39 -3 c-22 -2 -50 -1 -63 2 l-23
6 0 206 c0 170 -3 210 -16 237 -22 43 -30 47 -95 47 -51 0 -59 -3 -91 -35 -44
-45 -48 -64 -48 -281 0 -189 2 -184 -65 -184 -69 0 -65 -18 -65 304 0 161 3
296 7 300 4 4 30 6 58 4 47 -3 50 -5 55 -33z m1291 18 c61 -19 95 -42 121 -81
15 -23 18 -52 18 -204 l0 -177 30 -18 c34 -20 44 -40 35 -76 -5 -18 -16 -27
-37 -31 -55 -11 -77 -6 -111 24 -35 31 -56 37 -72 21 -6 -5 -39 -19 -75 -31
-126 -43 -238 -7 -297 94 -24 41 -9 136 26 164 52 41 88 52 285 82 67 10 96
31 96 71 0 48 -40 69 -128 69 l-75 0 -41 -45 c-39 -42 -45 -45 -94 -45 -49 0
-52 1 -52 25 0 124 204 211 371 158z m1082 -3 c50 -16 73 -29 96 -57 l30 -36
3 -179 3 -179 33 -27 c21 -18 32 -36 32 -52 0 -44 -15 -55 -74 -55 -46 0 -59
4 -83 28 -31 29 -44 32 -71 17 -62 -34 -102 -45 -162 -45 -101 0 -171 39 -206
116 -15 36 -16 46 -5 87 15 56 33 78 86 103 36 17 72 24 237 48 84 13 115 72
63 121 -21 19 -35 23 -94 23 -79 0 -111 -15 -136 -63 -15 -28 -19 -30 -75 -30
-54 0 -60 2 -60 20 0 34 36 95 72 121 18 14 53 31 78 38 25 7 50 15 55 16 32
10 122 2 178 -15z m-7345 -67 c40 -15 43 -18 26 -30 -10 -7 -24 -13 -32 -13
-8 0 -21 -8 -28 -17 -18 -25 -41 -3 -26 23 7 12 7 25 1 36 -12 23 1 23 59 1z
m-64 -100 c9 -22 -10 -41 -25 -26 -13 13 -5 43 10 43 5 0 12 -8 15 -17z"/>
<path d="M1945 31353 c-11 -3 -24 -9 -29 -14 -6 -5 -20 -9 -33 -9 -21 0 -102
-36 -113 -51 -3 -3 -16 -10 -30 -14 -14 -4 -27 -11 -30 -14 -3 -4 -28 -25 -57
-47 -29 -23 -72 -66 -96 -95 -50 -61 -117 -183 -117 -211 0 -10 -7 -33 -17
-51 -23 -46 -23 -305 1 -341 9 -14 16 -37 16 -50 0 -14 14 -48 30 -74 17 -27
30 -53 30 -57 0 -4 23 -36 50 -71 57 -71 151 -148 222 -182 26 -13 50 -27 53
-33 4 -5 20 -9 36 -9 16 0 40 -7 53 -15 34 -22 299 -22 342 0 16 8 39 15 51
15 21 0 152 63 163 78 3 5 26 24 52 44 52 39 142 150 173 213 11 22 23 41 27
43 4 2 10 20 14 40 3 20 13 56 21 78 18 49 13 261 -7 334 -42 153 -179 331
-312 405 -75 42 -126 65 -145 65 -11 0 -25 6 -31 12 -13 13 -276 22 -317 11z"/>
<path d="M8875 30918 c-24 -67 -67 -197 -72 -213 -3 -11 -12 -35 -20 -53 -28
-63 -21 -67 110 -70 93 -2 118 0 123 11 3 8 -13 68 -36 133 -23 66 -46 134
-51 151 -11 36 -46 63 -54 41z"/>
<path d="M9883 30979 c-20 -20 -18 -203 2 -219 11 -9 52 -11 148 -8 152 4 178
14 204 76 19 45 6 96 -33 133 -24 23 -33 24 -167 27 -105 2 -145 0 -154 -9z"/>
<path d="M9874 30637 c-2 -7 -3 -69 -2 -138 l3 -124 162 -3 162 -2 40 38 c39
37 41 42 41 96 0 68 -21 105 -74 130 -45 21 -324 24 -332 3z"/>
<path d="M5437 30893 c-4 -3 -7 -66 -7 -140 0 -100 3 -133 13 -133 6 0 30 30
52 67 22 36 48 78 57 92 10 14 21 33 24 41 4 8 14 23 22 32 29 35 9 48 -76 48
-43 0 -82 -3 -85 -7z"/>
<path d="M5438 30454 c-3 -3 -4 -14 -1 -25 4 -13 14 -19 33 -19 30 0 56 23 45
40 -6 10 -67 14 -77 4z"/>
<path d="M5212 30840 c-17 -28 -15 -40 8 -40 16 0 20 7 20 30 0 35 -10 38 -28
10z"/>
<path d="M10725 30741 c-35 -15 -76 -67 -78 -97 l-2 -29 146 -3 c166 -3 178 2
153 55 -29 58 -56 75 -131 79 -37 2 -77 0 -88 -5z"/>
<path d="M12607 30544 c-3 -3 -41 -10 -83 -15 -76 -8 -141 -31 -156 -53 -13
-18 -9 -83 5 -94 26 -22 99 -31 154 -20 69 14 113 59 113 118 0 57 -13 83 -33
64z"/>
<path d="M14328 30545 c-4 -4 -42 -11 -85 -16 -106 -13 -149 -33 -164 -76 -16
-49 6 -78 68 -92 112 -23 213 36 213 127 0 30 -21 68 -32 57z"/>
<path d="M4887 30454 c-13 -13 7 -34 33 -34 28 0 55 21 43 33 -8 9 -68 9 -76
1z"/>
<path d="M4884 30355 c-11 -28 4 -45 39 -45 38 0 63 21 53 45 -8 21 -84 21
-92 0z"/>
<path d="M6005 30400 c-18 -19 -17 -20 8 -20 17 0 27 5 27 14 0 24 -16 27 -35
6z"/>
<path d="M6623 30403 c-20 -8 -15 -23 7 -23 11 0 20 7 20 15 0 15 -6 17 -27 8z"/>
<path d="M1900 27293 c-105 -36 -181 -80 -283 -163 -25 -20 -127 -150 -127
-161 0 -5 -11 -27 -25 -49 -14 -22 -25 -48 -25 -59 0 -10 -7 -36 -16 -57 -24
-56 -24 -311 0 -345 9 -13 16 -33 16 -45 0 -62 119 -234 213 -308 29 -22 58
-46 65 -53 7 -7 22 -13 33 -13 10 0 19 -4 19 -8 0 -12 83 -52 107 -52 12 0 34
-7 49 -15 21 -11 63 -15 159 -15 96 0 138 4 159 15 15 8 37 15 47 15 24 0 119
41 119 52 0 4 8 8 18 8 38 0 201 160 247 242 74 134 86 179 92 339 4 100 1
134 -11 164 -9 20 -16 47 -16 59 0 12 -10 39 -22 61 -12 22 -27 51 -34 63 -7
13 -24 38 -38 55 -14 18 -37 47 -50 65 -13 17 -45 49 -72 69 -27 20 -53 43
-57 50 -4 7 -17 13 -27 13 -10 0 -22 5 -25 10 -8 13 -89 50 -112 50 -10 1 -29
7 -43 15 -36 21 -298 19 -360 -2z"/>
<path d="M8877 26873 c-3 -4 -10 -24 -15 -43 -6 -19 -27 -80 -47 -135 -21 -55
-39 -112 -42 -127 l-5 -28 126 0 c146 0 141 -6 100 105 -14 39 -28 79 -31 90
-2 11 -9 29 -14 40 -5 11 -14 38 -21 60 -12 37 -39 57 -51 38z"/>
<path d="M9877 26933 c-4 -3 -7 -50 -7 -104 0 -133 -1 -132 149 -126 156 6
184 16 212 73 19 40 20 51 10 84 -21 70 -47 80 -213 80 -80 0 -148 -3 -151 -7z"/>
<path d="M9877 26593 c-13 -12 -8 -248 5 -261 19 -19 281 -16 324 4 93 44 101
196 14 248 -23 13 -57 16 -182 16 -85 0 -158 -3 -161 -7z"/>
<path d="M11695 26868 c-20 -64 -62 -185 -81 -237 -14 -36 -22 -71 -20 -78 4
-10 36 -13 124 -13 65 0 121 3 124 6 3 3 -14 62 -39 132 -25 70 -47 138 -50
152 -7 32 -22 50 -40 50 -7 0 -15 -6 -18 -12z"/>
<path d="M1910 23249 c-61 -19 -129 -48 -140 -59 -3 -3 -25 -16 -49 -28 -48
-27 -92 -62 -131 -106 -14 -16 -32 -36 -40 -45 -37 -40 -110 -173 -110 -201 0
-12 -7 -35 -16 -52 -23 -45 -23 -301 0 -346 9 -17 16 -40 16 -52 0 -11 11 -38
25 -60 14 -22 25 -44 25 -49 0 -36 211 -251 247 -251 6 0 18 -6 25 -12 22 -21
78 -48 98 -48 9 0 34 -7 53 -15 52 -22 291 -21 361 1 83 26 177 76 239 126 60
50 150 151 168 190 5 13 21 43 34 68 14 25 25 55 25 66 0 12 7 39 16 59 12 30
15 64 11 164 -4 130 -15 187 -49 256 -49 103 -73 137 -153 219 -38 39 -108 91
-154 114 -25 13 -50 27 -56 32 -5 5 -28 11 -50 15 -22 4 -46 13 -54 19 -8 6
-67 12 -145 13 -109 2 -142 -1 -196 -18z"/>
<path d="M8848 22748 c-34 -104 -48 -145 -65 -186 -27 -63 -21 -67 110 -70 93
-2 118 0 123 11 3 8 -13 68 -36 133 -23 66 -46 136 -52 157 -8 28 -16 37 -32
37 -18 0 -26 -13 -48 -82z"/>
<path d="M12330 22643 c-19 -10 -47 -37 -63 -60 -25 -37 -28 -52 -28 -121 0
-60 4 -87 19 -110 53 -88 167 -113 249 -54 96 68 97 265 2 333 -42 30 -133 36
-179 12z"/>
<path d="M11125 22451 c-11 -5 -49 -11 -85 -15 -68 -8 -129 -29 -142 -49 -12
-19 -9 -84 5 -95 28 -23 94 -32 148 -21 59 12 83 29 105 71 29 56 9 124 -31
109z"/>
<path d="M1921 19205 c-18 -8 -41 -15 -51 -15 -27 0 -145 -64 -207 -111 -49
-38 -163 -167 -163 -184 0 -4 -13 -30 -30 -57 -16 -26 -30 -58 -30 -71 0 -12
-7 -35 -16 -52 -24 -44 -24 -297 -1 -342 10 -18 17 -41 17 -51 0 -32 69 -157
117 -213 24 -29 68 -70 96 -93 29 -22 58 -46 65 -53 7 -7 18 -13 23 -13 5 0
31 -13 57 -30 27 -16 58 -30 69 -30 11 0 37 -7 56 -15 26 -11 73 -15 162 -15
89 0 136 4 162 15 19 8 44 15 54 15 46 0 190 91 269 170 77 78 170 223 170
268 0 9 7 35 15 57 19 54 19 256 0 310 -8 22 -15 48 -15 57 0 30 -73 162 -112
202 -21 22 -40 47 -43 55 -16 43 -204 158 -320 195 -67 21 -295 22 -344 1z"/>
<path d="M8877 18783 c-3 -4 -10 -24 -15 -43 -6 -19 -27 -80 -47 -135 -21 -55
-39 -112 -42 -127 l-5 -28 126 0 c146 0 141 -6 100 105 -14 39 -28 79 -31 90
-2 11 -9 29 -14 40 -5 11 -14 38 -21 60 -12 37 -39 57 -51 38z"/>
<path d="M9877 18843 c-11 -10 -8 -193 3 -214 10 -17 22 -19 119 -19 68 0 126
6 160 16 48 14 55 20 73 61 17 40 19 51 9 85 -20 67 -51 78 -217 78 -77 0
-144 -3 -147 -7z"/>
<path d="M9877 18503 c-13 -12 -8 -248 5 -261 15 -15 274 -17 313 -2 14 5 39
24 56 42 25 28 29 40 29 92 0 56 -2 61 -40 98 l-41 38 -158 0 c-87 0 -161 -3
-164 -7z"/>
<path d="M1975 15175 c-101 -25 -196 -61 -203 -77 -2 -5 -10 -8 -17 -8 -27 0
-154 -107 -203 -170 -57 -74 -112 -174 -112 -202 0 -10 -7 -33 -16 -50 -13
-25 -16 -62 -16 -173 0 -111 3 -148 16 -173 9 -17 16 -40 16 -50 0 -28 56
-128 113 -202 48 -62 151 -151 192 -166 11 -4 22 -10 25 -13 12 -14 73 -41 91
-41 11 0 34 -7 52 -17 47 -24 298 -25 344 0 18 9 43 17 57 17 14 0 48 14 74
30 27 17 52 30 56 30 12 0 129 102 156 135 14 17 33 39 42 49 10 9 28 38 41
64 14 26 32 61 41 77 9 17 16 40 16 51 0 12 7 39 16 60 20 47 17 295 -3 316
-7 6 -13 26 -13 43 -1 16 -12 48 -25 70 -14 22 -29 50 -35 63 -24 54 -207 242
-236 242 -4 0 -29 14 -56 30 -26 17 -55 30 -63 30 -8 0 -35 7 -61 16 -39 13
-254 27 -289 19z"/>
<path d="M8835 14618 c-22 -68 -46 -135 -53 -151 -28 -56 -19 -62 111 -65 95
-2 118 0 123 12 3 8 -7 47 -21 88 -15 40 -30 87 -35 103 -23 82 -47 130 -65
133 -17 2 -26 -15 -60 -120z"/>
<path d="M9877 14793 c-10 -9 -8 -196 2 -211 6 -11 40 -13 149 -10 124 3 144
5 169 24 60 44 63 139 6 184 -23 18 -40 20 -173 20 -81 0 -150 -3 -153 -7z"/>
<path d="M9881 14456 c-8 -9 -11 -55 -9 -137 l3 -124 155 -3 c130 -2 160 0
186 14 45 24 64 63 64 127 0 48 -4 58 -34 89 -42 43 -65 48 -226 48 -97 0
-130 -3 -139 -14z"/>
<path d="M10700 14665 l0 -135 26 -6 c14 -4 84 -5 154 -2 119 4 131 7 162 30
26 20 37 38 46 76 14 63 2 106 -41 145 l-31 27 -158 0 -158 0 0 -135z"/>
<path d="M1921 11115 c-18 -8 -40 -15 -48 -15 -19 0 -100 -37 -108 -50 -3 -5
-15 -10 -26 -10 -11 0 -22 -7 -25 -15 -4 -8 -11 -15 -16 -15 -33 0 -178 -161
-213 -237 -14 -28 -30 -55 -35 -58 -6 -3 -10 -20 -10 -36 0 -17 -7 -44 -17
-62 -23 -46 -23 -304 1 -338 9 -13 16 -38 16 -56 0 -17 4 -35 10 -38 5 -3 21
-30 35 -58 13 -29 42 -72 64 -97 22 -25 41 -48 41 -51 0 -4 26 -26 58 -50 31
-23 61 -49 65 -56 4 -7 17 -13 27 -13 10 0 21 -4 24 -9 10 -16 86 -51 109 -51
13 0 29 -6 35 -12 9 -9 60 -14 161 -16 121 -3 154 -1 179 12 17 9 40 16 52 16
45 0 159 70 275 169 6 4 17 18 25 30 8 13 27 36 42 53 32 36 98 162 98 186 0
9 7 35 15 57 19 54 19 256 0 310 -8 22 -15 48 -15 57 0 20 -40 101 -52 106 -4
2 -8 11 -8 20 0 10 -20 40 -45 67 -25 28 -47 58 -51 68 -3 9 -9 17 -14 17 -5
0 -32 20 -61 45 -58 49 -176 115 -207 115 -11 0 -33 7 -48 15 -40 21 -285 20
-333 0z"/>
<path d="M8877 10693 c-3 -5 -10 -24 -15 -43 -6 -19 -29 -87 -51 -150 -23 -63
-41 -120 -41 -127 0 -10 31 -13 125 -13 85 0 125 4 125 11 0 24 -103 314 -114
321 -14 10 -24 10 -29 1z"/>
<path d="M9875 10747 c-3 -7 -4 -145 -3 -307 l3 -295 110 -3 c93 -2 119 1 168
19 106 40 152 127 152 289 0 160 -47 249 -153 290 -64 24 -269 30 -277 7z"/>
<path d="M10880 10309 c-25 -5 -66 -11 -92 -14 -67 -9 -112 -42 -116 -86 -5
-58 22 -74 125 -74 l85 0 34 38 c32 34 35 43 32 89 -2 28 -7 52 -13 53 -5 1
-30 -2 -55 -6z"/>
<path d="M12268 10315 c-3 -3 -42 -10 -86 -15 -78 -9 -139 -30 -154 -54 -15
-23 -8 -73 13 -92 17 -16 37 -19 106 -19 l85 0 34 38 c32 34 35 43 32 89 -3
46 -15 68 -30 53z"/>
<path d="M13868 10521 c-15 -5 -41 -19 -58 -31 -96 -68 -94 -252 3 -330 27
-21 41 -25 102 -25 61 0 75 4 101 25 47 38 66 78 72 151 4 56 1 74 -19 114
-38 77 -127 119 -201 96z"/>
<path d="M1955 7080 c-16 -4 -40 -12 -52 -18 -12 -7 -31 -12 -42 -12 -17 0
-78 -27 -91 -40 -3 -3 -17 -10 -31 -17 -43 -19 -145 -109 -192 -170 -51 -67
-107 -168 -107 -193 0 -10 -7 -35 -16 -56 -24 -55 -23 -297 0 -342 9 -17 16
-40 16 -50 0 -27 55 -127 109 -198 45 -59 148 -149 194 -169 12 -5 24 -12 27
-15 10 -11 76 -40 105 -46 17 -4 35 -10 40 -14 17 -13 187 -19 260 -10 98 12
163 31 217 63 26 15 49 27 53 27 3 0 34 23 68 51 63 53 150 152 168 192 5 12
20 40 34 62 13 22 24 54 25 70 0 17 6 37 13 43 8 9 12 55 12 155 0 150 -16
235 -56 301 -10 17 -23 41 -29 54 -23 53 -159 195 -224 234 -85 51 -120 68
-142 68 -14 0 -39 7 -56 16 -34 17 -243 27 -303 14z"/>
<path d="M8869 6623 c-40 -106 -91 -262 -93 -283 l-1 -25 118 -3 c95 -2 118 0
123 12 3 8 -7 47 -21 88 -15 40 -30 87 -35 103 -35 124 -69 165 -91 108z"/>
<path d="M11713 6465 c-17 -7 -44 -33 -60 -57 -24 -37 -28 -53 -28 -119 0 -47
6 -87 15 -105 53 -108 166 -133 251 -57 79 71 77 239 -2 316 -40 38 -117 48
-176 22z"/>
<path d="M11145 6260 c-16 -4 -48 -9 -70 -10 -22 -1 -58 -11 -80 -23 -79 -44
-60 -126 34 -142 100 -17 201 43 201 120 0 65 -13 73 -85 55z"/>
<path d="M12495 6258 c-92 -15 -98 -16 -132 -38 -28 -17 -33 -25 -33 -60 0
-45 20 -64 82 -75 95 -18 198 45 198 120 0 69 -3 70 -115 53z"/>
<path d="M1945 3033 c-11 -3 -24 -9 -29 -14 -6 -5 -22 -9 -36 -9 -14 0 -45
-11 -70 -25 -25 -14 -57 -30 -72 -36 -16 -6 -28 -15 -28 -20 0 -5 -7 -9 -15
-9 -7 0 -18 -6 -22 -13 -4 -7 -23 -25 -41 -39 -80 -66 -192 -235 -192 -290 0
-10 -7 -33 -16 -50 -23 -45 -23 -299 0 -343 9 -16 16 -40 16 -52 0 -13 14 -45
30 -71 17 -27 30 -53 30 -57 0 -12 106 -138 130 -155 13 -8 37 -27 54 -42 41
-36 162 -98 190 -98 12 0 28 -6 34 -13 18 -17 311 -16 372 2 86 26 171 73 238
132 25 21 48 39 51 39 3 0 17 17 31 37 14 20 34 47 45 59 27 29 95 159 95 181
0 10 7 36 15 58 20 56 20 263 0 312 -8 19 -15 45 -15 57 -1 45 -94 190 -170
266 -82 82 -224 170 -274 170 -12 0 -28 6 -34 13 -13 12 -275 21 -317 10z"/>
<path d="M8875 2598 c-2 -7 -12 -33 -20 -58 -9 -25 -19 -56 -22 -70 -3 -14 -9
-29 -13 -35 -4 -5 -18 -43 -31 -83 -20 -63 -21 -75 -9 -82 19 -12 211 -12 229
-1 12 8 8 30 -28 133 -23 68 -46 138 -51 157 -11 44 -45 68 -55 39z"/>
<path d="M9882 2658 c-17 -17 -17 -254 1 -265 6 -4 68 -6 137 -5 105 3 130 6
157 23 90 56 86 195 -7 241 -28 14 -61 18 -155 18 -81 0 -125 -4 -133 -12z"/>
<path d="M10694 2421 c-33 -15 -85 -81 -82 -104 3 -21 8 -22 149 -25 166 -3
178 2 153 55 -29 60 -58 77 -132 80 -37 2 -76 -1 -88 -6z"/>
<path d="M12997 2224 c-3 -3 -40 -10 -83 -15 -74 -10 -131 -30 -146 -53 -4 -6
-8 -28 -8 -49 0 -34 3 -39 38 -54 46 -20 118 -19 166 1 58 24 87 88 70 154 -6
21 -24 29 -37 16z"/>
<path d="M14050 2219 c-19 -5 -61 -11 -92 -14 -95 -10 -140 -54 -124 -120 11
-44 126 -62 199 -32 51 22 79 67 75 124 -3 51 -7 54 -58 42z"/>
</g>
</svg>
