<!DOCTYPE svg PUBLIC "-//W3C//DTD SVG 1.1//EN" "http://www.w3.org/Graphics/SVG/1.1/DTD/svg11.dtd">
<!-- Uploaded to: SVG Repo, www.svgrepo.com, Transformed by: SVG Repo Mixer Tools -->
<svg width="800px" height="800px" viewBox="-4.8 -4.8 57.60 57.60" id="Layer_2" data-name="Layer 2" xmlns="http://www.w3.org/2000/svg" fill="#000000" stroke="#000000" stroke-width="2.448">
<g id="SVGRepo_bgCarrier" stroke-width="0">
<path transform="translate(-4.8, -4.8), scale(1.7999999999999998)" d="M16,31.41618523844763C19.749291507026772,32.03202567578415,22.288952612270357,27.6019100187118,24.543754799130326,24.543754799130326C26.39410446545096,22.034152616249038,26.950574417225102,19.090133136448742,27.36647609189937,16C27.88427279780807,12.15279077650829,30.09537459490547,7.385865651439968,27.20123750379254,4.798762496207461C24.294954275571737,2.200801766282942,19.889162416241653,5.574236021770893,16,5.839373452098746C12.619137535517035,6.069858345807852,8.759489587218491,3.975175884074432,6.228542453328254,6.2285424533282505C3.664194453205499,8.511646662829335,3.8220591080162554,12.653034115608323,4.5877384572829065,15.999999999999998C5.213081331274659,18.733521894383678,8.198553699709892,19.879234210627224,9.866980894111062,22.133019105888934C12.160927425452021,25.231783055687703,12.195525907611051,30.791280777297782,16,31.41618523844763" fill="#7ed0ec" strokewidth="0"/>
</g>
<g id="SVGRepo_tracerCarrier" stroke-linecap="round" stroke-linejoin="round"/>
<g id="SVGRepo_iconCarrier">
<defs>
<style>.cls-1{fill:none;stroke:#19d416;stroke-linecap:round;stroke-linejoin:round;}</style>
</defs>
<path class="cls-1" d="M10.35,4.5a2,2,0,0,0-1.95,2v35.1a2,2,0,0,0,1.95,2h27.3a2,2,0,0,0,2-2V6.45a2,2,0,0,0-2-1.95h-2v8.82L31.79,9.41l-3.88,3.91V4.5Zm5.84,20H32.81M16.19,36.18H28.88M16.19,30.33h9.74"/>
</g>
</svg>