<!DOCTYPE svg PUBLIC "-//W3C//DTD SVG 1.1//EN" "http://www.w3.org/Graphics/SVG/1.1/DTD/svg11.dtd">
<!-- Uploaded to: SVG Repo, www.svgrepo.com, Transformed by: SVG Repo Mixer Tools -->
<svg fill="#ec1313" width="800px" height="800px" viewBox="-3.2 -3.2 38.40 38.40" version="1.1" xmlns="http://www.w3.org/2000/svg">
<g id="SVGRepo_bgCarrier" stroke-width="0">
<path transform="translate(-3.2, -3.2), scale(1.2)" d="M16,30.254399742931128C18.03057176577093,30.031134415644033,19.362395304873264,27.92304697351513,20.577290212850976,26.280762142895146C21.560489665424395,24.951681301554732,20.86398884791033,22.464624009362378,22.329112332038342,21.698758340582657C24.916518278938337,20.346240680880705,29.197518600774277,23.19212894924014,30.951267355026935,20.857961247292323C32.36255567047129,18.979594351202735,27.745633579743775,17.12780200225761,27.520571381323542,14.789139155142353C27.292557316599744,12.41980292039357,31.438854058693273,9.725994294825401,29.7213784357186,8.077958466485146C27.654660951210122,6.094801083658388,23.664318357180516,10.315350035894461,21.250813248764423,8.772875576630142C19.04573064083626,7.3636042262457595,21.498329247894056,2.4043427182753865,19.12354644332621,1.3048693543732135C17.07133884375658,0.3547413727386899,15.31347118220104,3.679946783296394,13.72302421295462,5.287671153712889C12.585873666429908,6.4371748352763545,12.643923272569623,8.68982648357917,11.166959561373535,9.347890519368459C9.125558391524462,10.257440755648776,6.53848272933832,8.389361689896244,4.535717501749286,9.381093413569026C2.665597297037179,10.30714181332435,0.6832691042744501,12.344232512070864,0.9316016437676069,14.416247514089607C1.2072198655292836,16.71592637005227,3.9549483084267627,17.848189218297648,5.728971412847214,19.33725948853718C6.912069824046057,20.33032246866074,8.796182633918315,20.432687638791514,9.640409344297069,21.726201146473663C10.702127586065782,23.352952432824495,9.79022742406139,25.781885829599275,10.951490682188362,27.339137581202998C12.125999000083803,28.914150931979172,14.047046487859713,30.46913079179851,16,30.254399742931128" fill="#7ed0ec" strokewidth="0"/>
</g>
<g id="SVGRepo_tracerCarrier" stroke-linecap="round" stroke-linejoin="round"/>
<g id="SVGRepo_iconCarrier"> <title>book-bookmark</title> <path d="M27.75 2c-0-0.414-0.336-0.75-0.75-0.75h-4.963c-0.020-0.002-0.037-0.012-0.058-0.012h-7.957c-0.021 0-0.038 0.010-0.058 0.012h-6.763c-0.028-0.001-0.061-0.002-0.094-0.002-1.541 0-2.797 1.22-2.856 2.746l-0 0.005v24.389c0.113 1.331 1.221 2.367 2.572 2.367 0.063 0 0.125-0.002 0.187-0.007l-0.008 0h20c0.414 0 0.75-0.336 0.75-0.75s-0.336-0.75-0.75-0.75v0h-19.8c-0.023 0.001-0.050 0.002-0.077 0.002-0.717 0-1.306-0.547-1.373-1.247l-0-0.006v-1.223c0-0.459 0.584-0.861 1.248-0.861l20.002 0.057c0 0 0.001 0 0.001 0 0.207 0 0.394-0.084 0.529-0.22l0-0c0.017-0.017 0.025-0.041 0.040-0.060 0.047-0.051 0.087-0.11 0.118-0.173l0.002-0.004c0.016-0.049 0.029-0.105 0.034-0.164l0-0.003c0.011-0.035 0.020-0.077 0.025-0.121l0-0.003v-0.002zM26.25 24.471l-15.5-0.044v-21.677h2.521v10.448c0 0 0 0 0 0.001 0 0.414 0.336 0.749 0.749 0.749 0.181 0 0.347-0.064 0.476-0.171l-0.001 0.001 3.51-2.869 3.504 2.804c0.127 0.102 0.29 0.164 0.468 0.164 0.414 0 0.75-0.336 0.751-0.75v-10.377h3.521zM21.229 2.75v8.816l-2.76-2.208c-0.127-0.103-0.29-0.165-0.468-0.165-0.181 0-0.347 0.064-0.477 0.172l0.001-0.001-2.754 2.252v-8.866zM5.75 24.686v-20.686c0.067-0.705 0.657-1.252 1.374-1.252 0.027 0 0.054 0.001 0.080 0.002l-0.004-0h2.050v21.672l-2.25-0.006c-0.453 0.002-0.883 0.101-1.269 0.278l0.019-0.008z"/> </g>
</svg>