<!DOCTYPE svg PUBLIC "-//W3C//DTD SVG 1.1//EN" "http://www.w3.org/Graphics/SVG/1.1/DTD/svg11.dtd">
<!-- Uploaded to: SVG Repo, www.svgrepo.com, Transformed by: SVG Repo Mixer Tools -->
<svg width="800px" height="800px" viewBox="-19.2 -19.2 230.40 230.40" xmlns="http://www.w3.org/2000/svg" fill="none">
<g id="SVGRepo_bgCarrier" stroke-width="0">
<path transform="translate(-19.2, -19.2), scale(7.199999999999999)" d="M16,31.492663838797146C18.844523541221466,31.943507364068235,21.594787690965596,29.950972881350452,23.708696361293384,27.994965674217774C25.63547000624682,26.21211517128766,26.38652767748307,23.612058173288936,27.210416447985985,21.119625648921527C27.95369537749249,18.871054428017306,28.5312527557868,16.59003229752717,28.256203444012545,14.237823977964561C27.976080408787183,11.842225422535249,27.61326423917435,9.031288951230124,25.63547609367054,7.650812437433716C23.647815425447646,6.263445000675411,20.93188572400398,7.61022405396979,18.514058411905165,7.437903348752407C16.726850403858677,7.3105274427993105,15.074871819754748,6.928890767521368,13.290105500315955,6.770946883689868C10.37586877514871,6.513049890809568,6.778839247489817,4.148686015790172,4.708902639704462,6.216208443479957C2.704979448748487,8.21779444620395,5.085042028916134,11.704845098962608,5.553945541035896,14.498084110911556C5.879966084525353,16.440175132270692,6.356544392367834,18.245177468872352,7.038352726307128,20.092647177904645C7.778560075596641,22.098358443289705,8.39525367307251,24.096494024366258,9.716528058829995,25.777273188199487C11.502497171626242,28.049185596701,13.145771138202123,31.040282066125695,16,31.492663838797146" fill="#7ed0ec" strokewidth="0"/>
</g>
<g id="SVGRepo_tracerCarrier" stroke-linecap="round" stroke-linejoin="round"/>
<g id="SVGRepo_iconCarrier">
<path stroke="#e1e41b" stroke-linecap="round" stroke-linejoin="round" stroke-width="12" d="M96 170c40.869 0 74-33.131 74-74 0-40.87-33.131-74-74-74-40.87 0-74 33.13-74 74 0 40.869 33.13 74 74 74Z"/>
<path stroke="#e1e41b" stroke-linecap="round" stroke-width="12" d="M122.87 122.87A37.998 37.998 0 0 1 58 96a38 38 0 0 1 64.87-26.87"/>
</g>
</svg>