<!DOCTYPE svg PUBLIC "-//W3C//DTD SVG 1.1//EN" "http://www.w3.org/Graphics/SVG/1.1/DTD/svg11.dtd">
<!-- Uploaded to: SVG Repo, www.svgrepo.com, Transformed by: SVG Repo Mixer Tools -->
<svg fill="#16e940" width="800px" height="800px" viewBox="-3.2 -3.2 38.40 38.40" version="1.1" xmlns="http://www.w3.org/2000/svg">
<g id="SVGRepo_bgCarrier" stroke-width="0">
<path transform="translate(-3.2, -3.2), scale(1.2)" d="M16,31.980378784239292C18.670198688033842,32.460527808201874,20.43356237198475,29.09935201581037,22.717586376393832,27.63520090814663C24.881370579090333,26.248128341918044,27.96191564536234,25.86904811086849,29.11597533381287,23.572511889661353C30.272064382008875,21.271937317398386,29.073901870389346,18.52383139117781,28.564529355615377,16C28.13661979102513,13.879800027731502,27.06686129204603,12.05850223522396,26.3783301879936,10.008068272223078C25.49961078486656,7.391256776685542,26.368985721156598,3.5594216138486603,23.944094803184278,2.2404241807409644C21.49459704922017,0.9080420822573887,18.742174688259343,3.857143156976845,16,4.362869646400213C13.853458855729572,4.75874621908632,11.486162364518037,3.816548273391324,9.584849203005437,4.888632881389432C7.6797880757092685,5.9628308374194186,7.183930113819331,8.416857713562045,5.8028644407769345,10.112681039919451C4.111262490211666,12.189814736509568,0.9596230414706206,13.35492796370319,0.5358359776437283,15.999999999999996C0.1189108237779089,18.60224334306176,1.8073548090628062,21.27872654688853,3.7240682271253753,23.08751251362263C5.504329759047234,24.767530009045462,8.563710789748177,24.010514257389783,10.546037154272195,25.446540751393485C12.883355997137357,27.139729039334345,13.159394720303357,31.469587636516277,16,31.980378784239292" fill="#7ed0ec" strokewidth="0"/>
</g>
<g id="SVGRepo_tracerCarrier" stroke-linecap="round" stroke-linejoin="round"/>
<g id="SVGRepo_iconCarrier"> <path d="M23.226 2.361c-0.8-0.375-1.556-0.729-2.245-1.075-1.765-0.884-3.364-1.313-4.89-1.313-3.072 0-5.197 1.772-6.53 3.105l-6.464 6.471c-3.459 3.463-4.011 6.988-1.79 11.431 0.345 0.69 0.699 1.448 1.074 2.251 2.022 4.325 4.112 8.796 7.533 8.796 0.096 0 0.191-0.003 0.288-0.011 3.53-0.276 4.532-4.822 5.416-8.831 0.14-0.635 0.274-1.244 0.41-1.79 0.238-0.944 0.705-1.53 1.986-2.814l0.176-0.177 0.108-0.108 0.285-0.284c1.284-1.284 1.87-1.751 2.816-1.989 0.541-0.136 1.148-0.27 1.782-0.409 4.007-0.884 8.55-1.886 8.825-5.423 0.278-3.588-4.327-5.745-8.781-7.83zM29.952 10.010c-0.195 2.493-5.775 3.229-9.097 4.062-1.469 0.371-2.363 1.149-3.712 2.498-0.094 0.094-0.189 0.188-0.284 0.283s-0.189 0.191-0.283 0.284c-1.349 1.351-2.125 2.244-2.495 3.715-0.834 3.325-1.568 8.912-4.058 9.107-0.045 0.003-0.090 0.005-0.135 0.005-2.642 0-4.865-6.008-6.826-9.927-1.992-3.985-1.139-6.569 1.417-9.128 0.49-0.491 1.101-1.101 1.848-1.849 0.763-0.764 1.671-1.673 2.747-2.75 0.747-0.748 1.357-1.357 1.848-1.849 1.588-1.589 3.186-2.52 5.122-2.52 1.181 0 2.489 0.345 3.996 1.102 3.983 1.997 10.122 4.265 9.912 6.968zM14.962 10.977h2v-2h-2v2zM14.962 7.977h2v-2h-2v2zM17.962 7.977h2v-2h-2v2zM17.962 10.977h2v-2h-2v2zM10.309 16.982l0.761-0.761c0.375-0.375 0.375-0.983 0-1.358s-0.982-0.375-1.357 0l-0.761 0.761-0.761-0.761c-0.375-0.375-0.982-0.375-1.357 0s-0.375 0.983 0 1.358l0.761 0.761-0.761 0.761c-0.375 0.375-0.375 0.983 0 1.357s0.983 0.375 1.357 0l0.761-0.761 0.783 0.783c0.375 0.375 0.982 0.375 1.357 0s0.375-0.983 0-1.358z"/> </g>
</svg>