<?xml version="1.0" standalone="no"?>
<!DOCTYPE svg PUBLIC "-//W3C//DTD SVG 20010904//EN"
 "http://www.w3.org/TR/2001/REC-SVG-20010904/DTD/svg10.dtd">
<svg version="1.0" xmlns="http://www.w3.org/2000/svg"
 width="1080.000000pt" height="2220.000000pt" viewBox="0 0 1080.000000 2220.000000"
 preserveAspectRatio="xMidYMid meet">

<g transform="translate(0.000000,2220.000000) scale(0.100000,-0.100000)"
fill="#000000" stroke="none">
<path d="M0 11100 l0 -11100 2605 0 2606 0 41 21 c60 30 137 36 208 14 33 -10
60 -22 60 -27 0 -4 1188 -8 2640 -8 l2640 0 0 11100 0 11100 -5400 0 -5400 0
0 -11100z m10279 10580 c205 -104 130 -412 -99 -412 -62 0 -119 23 -157 64
-33 35 -63 108 -63 153 0 45 30 118 63 153 64 69 170 86 256 42z m-9755 12 c2
-4 -15 -42 -39 -85 l-44 -77 100 0 c64 0 99 -4 99 -11 0 -21 -105 -199 -117
-199 -19 0 -17 4 33 96 l46 84 -96 0 c-81 0 -96 2 -96 16 0 19 91 184 101 184
4 0 10 -3 13 -8z m316 -179 c56 -32 67 -111 24 -162 -76 -91 -215 -12 -183
104 18 65 98 94 159 58z m7588 -5040 l-3 -3028 -3022 -3 -3023 -2 0 3030 0
3030 3025 0 3025 0 -2 -3027z m-4578 -3482 l5 -72 34 35 c19 20 43 36 54 36
15 0 13 -7 -17 -42 -21 -24 -32 -46 -28 -52 5 -6 23 -30 41 -53 l33 -43 -25 0
c-17 0 -32 11 -51 40 -30 46 -46 44 -46 -6 0 -27 -4 -34 -20 -34 -19 0 -20 7
-20 128 0 71 3 132 7 136 18 17 28 -7 33 -73z m180 0 l5 -72 34 35 c19 20 43
36 54 36 15 0 13 -7 -17 -42 -21 -24 -32 -46 -28 -52 5 -6 23 -30 41 -53 32
-42 32 -43 9 -43 -15 0 -32 13 -51 40 -32 46 -47 44 -47 -6 0 -27 -4 -34 -20
-34 -19 0 -20 7 -20 128 0 71 3 132 7 136 18 17 28 -7 33 -73z m650 -4 l0 -71
38 37 c21 20 46 37 56 37 14 0 11 -8 -18 -43 l-35 -43 40 -52 c38 -49 39 -52
17 -52 -15 0 -32 14 -51 40 -32 46 -47 44 -47 -6 0 -27 -4 -34 -20 -34 -19 0
-20 7 -20 128 0 71 3 131 6 135 3 3 12 3 20 0 10 -4 14 -24 14 -76z m494 22
c-1 -30 -2 -88 -3 -130 l-1 -77 -34 0 c-19 0 -38 -2 -43 -5 -18 -11 -55 15
-69 49 -18 43 -11 89 19 122 22 24 66 29 85 10 9 -9 12 -2 12 33 0 47 6 62 24
56 6 -2 10 -27 10 -58z m486 -74 l0 -134 -33 1 c-19 1 -39 -2 -45 -6 -21 -13
-63 14 -78 50 -18 43 -11 89 19 122 22 24 66 29 85 10 9 -9 12 0 12 40 0 45 3
52 20 52 19 0 20 -7 20 -135z m268 -3 c2 -127 2 -132 -18 -132 -19 0 -20 6
-20 128 0 71 3 132 7 136 21 21 28 -10 31 -132z m682 89 l0 -39 38 5 c34 4 42
1 60 -22 24 -31 29 -89 11 -128 -12 -27 -54 -51 -71 -41 -6 4 -26 7 -45 6
l-33 -1 0 129 c0 123 1 130 20 130 17 0 20 -7 20 -39z m680 -33 l0 -72 38 37
c21 20 46 37 56 37 14 0 10 -8 -18 -42 -21 -24 -32 -46 -28 -52 5 -6 23 -30
41 -53 32 -42 32 -43 9 -43 -15 1 -32 14 -51 41 -31 45 -47 43 -47 -7 0 -27
-4 -34 -20 -34 -19 0 -20 7 -20 130 0 123 1 130 20 130 18 0 20 -7 20 -72z
m-4120 -48 l0 -110 60 0 c47 0 60 -3 60 -15 0 -12 -15 -15 -75 -15 l-75 0 0
125 c0 104 2 125 15 125 12 0 15 -19 15 -110z m3640 96 c0 -8 -4 -17 -8 -20
-13 -8 -35 11 -28 23 10 16 36 14 36 -3z m850 -1 c0 -8 -6 -15 -14 -15 -17 0
-28 14 -19 24 12 12 33 6 33 -9z m-4100 -25 c0 -11 7 -20 15 -20 8 0 15 -7 15
-15 0 -8 -7 -15 -15 -15 -12 0 -15 -14 -15 -65 0 -52 3 -65 16 -65 9 0 14 -7
12 -17 -5 -25 -24 -27 -47 -4 -17 17 -21 34 -21 86 0 51 -3 65 -15 65 -8 0
-15 7 -15 15 0 8 7 15 15 15 8 0 15 9 15 20 0 13 7 20 20 20 13 0 20 -7 20
-20z m-111 -41 c18 -20 33 -74 23 -84 -3 -3 -32 -5 -64 -5 -62 0 -64 -1 -48
-31 12 -21 74 -27 85 -9 4 6 11 8 16 5 18 -12 9 -26 -26 -41 -76 -31 -142 38
-115 121 21 63 89 86 129 44z m301 1 c16 -16 20 -33 20 -95 l0 -74 -37 -1
c-21 0 -48 -1 -61 -1 -32 -1 -52 19 -52 51 0 34 24 56 73 64 39 7 45 14 25 34
-17 17 -47 15 -54 -3 -7 -16 -44 -21 -44 -5 0 5 10 18 22 30 28 26 82 26 108
0z m545 6 c16 -12 20 -29 23 -95 l4 -80 -38 -1 c-22 0 -49 -1 -62 -1 -31 -1
-52 19 -52 49 0 39 27 62 72 62 35 0 39 2 36 23 -4 27 -55 38 -64 13 -7 -17
-44 -22 -44 -6 0 6 9 19 20 30 24 24 77 27 105 6z m101 3 c4 -8 9 -8 17 0 16
16 58 13 79 -6 14 -13 18 -31 18 -95 0 -60 -3 -78 -14 -78 -18 0 -28 42 -20
85 7 39 -9 75 -34 75 -32 0 -42 -22 -42 -92 0 -61 -2 -68 -20 -68 -19 0 -20 7
-20 95 0 76 3 95 14 95 8 0 18 -5 22 -11z m551 -4 c13 -9 28 -33 34 -54 33
-109 -107 -177 -156 -75 -42 89 46 182 122 129z m400 -7 c12 -13 23 -36 25
-53 l3 -30 -62 -3 c-67 -3 -75 -10 -43 -42 24 -24 27 -24 62 -6 19 10 30 11
34 4 11 -17 -26 -38 -64 -38 -47 0 -69 14 -82 55 -30 92 67 178 127 113z m483
2 c16 -16 20 -33 20 -95 l0 -74 -37 -1 c-21 0 -49 -1 -63 -1 -31 -1 -63 36
-54 65 8 29 29 43 75 51 30 5 39 11 37 23 -4 23 -56 29 -64 8 -8 -20 -44 -21
-44 -2 0 43 95 61 130 26z m275 6 c16 -12 20 -29 23 -95 l4 -80 -38 -1 c-79
-1 -87 0 -100 11 -18 15 -18 64 1 82 8 9 33 18 55 22 42 7 48 13 28 33 -17 17
-47 15 -54 -3 -7 -17 -44 -21 -44 -5 0 6 9 19 20 30 24 24 77 27 105 6z m196
-2 c14 -13 18 -13 29 1 16 19 64 19 84 0 32 -33 35 -167 4 -173 -15 -3 -18 7
-20 69 -2 55 -7 74 -20 83 -13 8 -23 8 -35 0 -14 -9 -19 -28 -21 -83 -2 -54
-6 -71 -17 -71 -12 0 -15 15 -15 63 0 77 -15 103 -53 93 -26 -6 -27 -9 -27
-81 0 -68 -2 -75 -20 -75 -19 0 -20 7 -20 93 l0 93 57 1 c38 1 63 -3 74 -13z
m509 -80 c0 -86 -2 -95 -17 -92 -15 3 -18 16 -21 82 -3 89 0 106 23 106 12 0
15 -16 15 -96z m87 85 c8 -8 13 -8 17 0 11 17 57 13 78 -6 24 -22 27 -173 3
-173 -12 0 -15 13 -15 61 0 68 -12 99 -38 99 -32 0 -42 -22 -42 -92 0 -61 -2
-68 -20 -68 -19 0 -20 7 -20 95 0 96 8 113 37 84z m259 0 c4 -8 9 -8 17 0 23
23 27 8 27 -101 0 -132 -8 -148 -75 -148 -25 0 -48 6 -55 15 -19 23 -3 35 27
20 23 -12 31 -12 48 -1 38 25 30 42 -19 38 -36 -3 -46 0 -60 19 -24 36 -21
117 6 146 23 24 72 31 84 12z m404 -9 c16 -16 20 -33 20 -95 l0 -74 -37 -1
c-21 0 -48 -1 -61 -1 -31 -1 -52 19 -52 49 0 39 27 62 72 62 35 0 39 2 36 23
-4 27 -55 38 -64 13 -7 -17 -44 -22 -44 -6 0 23 41 50 75 50 22 0 43 -8 55
-20z m100 -75 c0 -88 -1 -95 -20 -95 -18 0 -20 7 -20 88 0 90 3 102 27 102 10
0 13 -22 13 -95z m-1901 -10151 c130 -59 330 -214 277 -214 -9 0 -42 26 -74
58 -63 62 -112 102 -126 102 -5 0 -41 15 -80 34 -39 18 -82 38 -96 45 -24 11
-23 11 9 6 19 -3 60 -17 90 -31z m-609 -61 c-26 -4 -55 -48 -39 -59 17 -10 9
-22 -21 -32 -20 -7 -28 -16 -24 -25 4 -11 -1 -13 -20 -10 -23 5 -28 13 -25 40
0 4 -8 11 -18 15 -13 6 -11 7 9 5 15 -2 25 0 22 4 -3 5 0 9 6 9 6 0 8 5 5 10
-4 7 2 9 17 5 17 -4 28 1 42 20 13 17 27 25 45 24 l26 -2 -25 -4z m591 -29
c16 -8 29 -16 29 -18 0 -11 -33 -66 -46 -77 -9 -7 -20 -23 -25 -36 -5 -13 -13
-23 -18 -23 -10 0 -21 48 -21 94 0 49 -10 75 -26 69 -14 -5 -20 8 -9 19 8 8
81 -10 116 -28z m-521 16 c0 -5 -9 -10 -20 -10 -11 0 -20 5 -20 10 0 6 9 10
20 10 11 0 20 -4 20 -10z m220 -7 c0 4 9 3 20 -3 24 -13 27 -40 4 -40 -21 0
-44 24 -44 47 0 15 2 16 10 3 5 -8 10 -11 10 -7z m-555 -19 c-34 -28 -65 -47
-65 -39 0 6 81 65 89 65 3 -1 -7 -12 -24 -26z m655 -69 c0 -8 -7 -15 -15 -15
-16 0 -20 12 -8 23 11 12 23 8 23 -8z m-596 -1 c9 -3 16 -11 16 -16 0 -6 11
-19 25 -30 27 -21 33 -48 11 -48 -7 0 -19 7 -26 14 -6 8 -27 20 -46 26 -37 13
-44 33 -16 49 21 13 17 12 36 5z m216 -7 c0 -7 -9 -13 -20 -13 -11 0 -20 6
-20 13 0 7 9 13 20 13 11 0 20 -6 20 -13z m160 -23 c0 -17 -5 -24 -20 -24 -18
0 -20 -7 -20 -78 0 -66 3 -79 20 -90 11 -7 20 -21 20 -31 0 -20 26 -36 35 -21
3 4 -1 11 -7 13 -7 3 -3 6 10 6 15 1 22 7 22 21 0 16 7 20 30 20 17 0 30 5 30
11 0 5 5 7 12 3 9 -6 9 -9 0 -12 -19 -6 -14 -22 8 -22 11 0 20 5 20 10 0 6 11
10 25 10 32 0 31 -5 -2 -34 l-28 -24 39 -16 c49 -20 47 -21 36 10 -13 32 -13
44 0 44 6 0 10 -7 10 -15 0 -8 2 -15 4 -15 2 0 12 -3 21 -7 14 -5 16 -2 11 15
-8 24 -15 26 96 -29 36 -19 97 -27 70 -11 -6 5 24 6 68 4 62 -3 80 -1 80 10 1
7 6 3 14 -10 14 -27 66 -63 78 -56 4 3 5 -2 2 -10 -5 -12 1 -16 24 -16 17 0
33 -6 35 -12 4 -10 7 -10 15 0 7 10 15 7 34 -13 19 -18 28 -22 31 -13 3 7 6 3
6 -10 1 -13 5 -21 10 -17 12 7 18 -15 27 -100 l7 -70 -34 26 c-19 14 -56 35
-83 48 -28 13 -64 34 -81 47 -18 13 -42 24 -54 24 -34 0 -58 17 -69 49 -10 27
-59 72 -94 84 -15 5 -14 2 3 -27 l19 -33 -29 -6 c-35 -7 -94 8 -111 28 -7 8
-18 15 -25 15 -7 0 -18 7 -25 15 -20 24 -49 18 -61 -12 -7 -20 -6 -28 3 -35
10 -6 10 -8 1 -8 -7 0 -13 -7 -13 -15 0 -18 -20 -20 -21 -2 0 8 -2 9 -5 0 -7
-16 43 -63 67 -63 25 0 117 -50 123 -67 3 -7 1 -13 -4 -13 -18 0 -25 -2 -45
-16 -44 -31 -58 -26 -287 122 -48 30 -61 34 -73 24 -28 -23 -16 -56 49 -136
59 -73 138 -153 154 -155 32 -3 46 -10 59 -28 16 -23 43 -28 43 -8 0 8 3 7 10
-3 8 -12 10 -12 16 3 7 18 34 24 34 7 0 -5 -4 -10 -10 -10 -21 0 -9 -37 16
-48 21 -10 28 -9 41 3 8 9 13 25 10 35 -3 11 -1 23 4 26 15 9 49 -6 49 -22 0
-19 16 -18 24 2 5 12 14 15 39 10 32 -6 33 -5 45 39 8 31 17 45 29 45 9 0 24
7 33 15 14 13 25 14 56 6 87 -22 114 -35 114 -56 0 -14 3 -16 9 -7 10 17 60 5
68 -15 9 -24 -16 -140 -37 -176 -11 -18 -20 -25 -21 -17 0 13 -1 13 -6 0 -12
-28 -27 -38 -44 -27 -22 14 -75 -8 -82 -34 -3 -13 -14 -19 -32 -19 -30 0 -51
-17 -65 -55 -18 -48 22 -78 55 -40 6 7 18 15 28 18 13 5 17 1 17 -14 0 -16 5
-20 19 -16 54 14 -43 -106 -145 -179 -78 -56 -189 -114 -216 -114 -18 0 -16 4
12 22 54 37 57 49 21 88 -37 41 -41 88 -11 130 11 15 18 29 15 31 -2 3 -6 21
-8 42 -3 25 -13 44 -32 59 -15 12 -41 34 -59 50 -17 15 -41 28 -53 28 -24 0
-88 76 -117 140 -47 103 -99 186 -149 239 -32 33 -57 66 -57 74 0 12 -16 36
-73 107 -7 8 -24 34 -40 58 -22 34 -26 46 -17 63 16 29 -3 78 -45 119 -19 18
-32 37 -29 41 8 13 31 -1 42 -26 6 -14 23 -27 37 -31 14 -3 25 -10 25 -16 0
-5 6 -8 13 -7 20 4 67 -23 60 -34 -3 -6 6 -2 20 9 15 10 27 27 27 37 0 9 5 17
10 17 15 0 13 80 -2 81 -7 0 -3 5 9 11 12 6 27 24 32 40 12 34 31 29 31 -8z
m585 -2 c-6 -7 -35 18 -35 31 0 5 9 2 20 -8 11 -10 18 -20 15 -23z m-488 -36
c3 -3 1 -6 -5 -6 -7 0 -12 -9 -12 -20 0 -22 -24 -27 -44 -8 -22 21 -8 46 25
43 16 -1 32 -5 36 -9z m3235 -57 c242 -50 418 -270 418 -522 0 -281 -242 -518
-528 -517 -239 2 -452 171 -507 401 -88 375 242 716 617 638z m-3908 -105 c27
-10 19 -34 -12 -34 -35 0 -45 9 -31 27 13 15 20 16 43 7z m1476 -94 c0 -8 -7
-2 -15 14 -8 15 -15 33 -15 40 1 16 29 -36 30 -54z m-1107 -134 c47 -22 80
-53 73 -71 -3 -8 -11 -15 -19 -15 -7 0 -28 -11 -47 -25 -59 -44 -82 -33 -132
64 -20 38 -17 51 11 44 10 -3 22 0 25 6 10 15 51 14 89 -3z m1176 -168 c1 -10
-3 -18 -9 -18 -5 0 -10 19 -9 43 1 36 2 38 9 17 4 -14 8 -33 9 -42z m-28 -190
c-8 -28 -9 -30 -10 -8 -1 34 12 80 17 58 2 -9 -1 -31 -7 -50z m-20 -79 c-6
-16 -10 -18 -10 -7 -1 22 12 55 16 42 2 -6 -1 -22 -6 -35z m-1375 -64 c8 -32
-25 -90 -51 -90 -28 0 -41 59 -20 91 21 33 62 33 71 -1z m738 -121 c9 -3 16
-13 16 -21 0 -8 -4 -11 -10 -8 -5 3 -12 -6 -16 -20 -7 -28 -43 -35 -62 -12
-12 14 11 50 38 60 8 3 16 6 17 6 1 1 8 -2 17 -5z m510 -76 c-17 -28 -128
-148 -143 -153 -8 -3 -13 -4 -11 -1 3 3 39 41 80 85 73 79 89 94 74 69z m-494
-85 c0 -20 -34 -12 -38 9 -2 12 2 15 17 11 12 -3 21 -12 21 -20z m320 -88 c0
-2 -26 -24 -57 -47 -76 -56 -196 -113 -258 -122 -69 -10 -48 8 44 39 87 30
235 101 252 121 12 14 19 18 19 9z m-816 -144 c4 -5 -3 -7 -14 -4 -23 6 -26
13 -6 13 8 0 17 -4 20 -9z"/>
<path d="M10130 21668 c-146 -41 -187 -233 -71 -331 30 -25 87 -47 121 -47 65
0 152 58 176 117 29 68 10 159 -44 216 -14 15 -49 34 -76 42 -56 17 -58 17
-106 3z m-35 -183 c0 -23 -34 -33 -45 -14 -13 20 1 40 24 37 13 -2 21 -10 21
-23z m110 0 c0 -23 -34 -33 -45 -14 -13 20 1 40 24 37 13 -2 21 -10 21 -23z
m110 0 c0 -23 -34 -33 -45 -14 -13 20 1 40 24 37 13 -2 21 -10 21 -23z"/>
<path d="M742 21493 c-14 -6 -42 -55 -42 -75 0 -7 5 -20 10 -28 8 -12 19 -5
64 39 30 30 53 58 50 63 -6 9 -61 10 -82 1z"/>
<path d="M792 21407 c-29 -29 -49 -56 -46 -60 18 -17 67 -6 95 22 29 30 34 46
23 75 -9 24 -15 21 -72 -37z"/>
<path d="M2820 19455 l0 -35 -180 0 -180 0 0 -180 0 -180 -35 0 -35 0 0 -1167
c0 -1110 1 -1165 18 -1151 9 9 76 54 147 102 72 48 135 90 140 94 30 24 104
61 132 67 25 5 43 0 78 -21 26 -15 49 -33 52 -40 3 -8 -7 -28 -21 -45 -14 -17
-26 -37 -26 -45 0 -15 -81 -137 -104 -159 -10 -9 -133 -151 -174 -200 -9 -12
-43 -50 -74 -85 -31 -36 -82 -94 -112 -130 l-56 -65 0 -1162 0 -1163 30 0 30
0 2 -182 3 -183 183 -3 182 -2 0 -35 0 -35 535 0 c467 0 535 2 535 15 0 8 -4
34 -10 57 -5 24 -12 60 -15 81 -5 28 -11 37 -25 37 -21 0 -37 -40 -25 -61 5
-8 1 -9 -13 -5 -14 5 -24 1 -30 -11 -9 -14 -13 -15 -26 -4 -24 20 -20 41 9 41
31 0 32 15 4 31 -15 8 -24 8 -28 1 -4 -7 -12 -8 -21 -2 -8 6 -25 10 -37 10
-19 0 -22 -6 -25 -42 -4 -52 -22 -53 -26 -1 -2 21 -9 41 -15 45 -7 4 -174 8
-372 8 -198 0 -366 4 -373 9 -8 5 -12 17 -10 27 5 28 65 32 576 33 444 1 452
1 452 21 0 19 -5 19 -87 14 -138 -10 -129 -44 -124 435 3 371 5 398 23 423 19
27 70 48 119 48 38 0 56 24 39 55 -7 13 -11 36 -10 52 3 32 0 128 -4 158 -2
11 -4 37 -5 57 -1 27 -10 46 -36 74 -39 41 -43 58 -17 73 10 6 12 11 4 11 -7
0 -16 10 -21 23 -11 29 15 137 36 153 12 8 13 15 4 32 -16 30 -14 87 4 102 9
8 13 21 9 32 -6 21 -15 282 -19 588 -3 216 -11 386 -19 398 -3 5 -10 41 -17
81 -9 62 -8 79 7 124 33 97 36 92 40 -63 1 -52 10 -155 20 -227 14 -102 16
-140 7 -162 -8 -23 -8 -32 4 -44 9 -8 19 -47 23 -88 10 -89 3 -360 -11 -395
-5 -14 -6 -30 -3 -36 3 -5 10 -54 14 -108 4 -54 11 -104 15 -110 5 -8 16 3 32
29 28 47 77 68 104 45 8 -8 25 -14 37 -14 31 0 96 -82 102 -128 4 -29 10 -38
28 -40 28 -4 72 -93 72 -145 0 -38 -24 -78 -37 -62 -9 10 -52 103 -77 168 -10
25 -21 37 -35 37 -15 0 -30 20 -60 81 l-39 81 -43 -85 c-41 -82 -44 -86 -71
-80 -32 6 -34 3 -13 -38 13 -25 14 -36 4 -64 -18 -49 0 -85 41 -85 32 0 45
-24 38 -71 -2 -19 -10 -25 -38 -27 -19 -2 -39 -7 -43 -12 -5 -4 -4 -32 1 -61
26 -132 33 -220 22 -255 -7 -20 -10 -38 -7 -40 3 -3 126 4 273 15 148 12 321
23 384 26 159 8 243 24 233 44 -4 9 -9 48 -11 86 -2 45 -11 86 -25 115 -20 42
-21 59 -20 226 3 210 0 221 -59 202 -31 -9 -41 -8 -63 6 -34 22 -28 48 13 58
45 12 124 112 112 142 -4 12 -6 34 -3 49 4 22 2 26 -11 21 -11 -4 -19 2 -26
21 -13 34 -5 45 15 19 14 -18 14 -18 15 10 0 21 -4 27 -15 22 -14 -5 -21 13
-15 39 3 13 0 118 -5 168 -2 21 -11 47 -20 57 -25 27 -31 93 -11 121 9 13 16
36 16 51 0 19 5 28 16 28 13 0 11 6 -7 31 -13 18 -24 52 -27 79 -4 39 1 59 27
109 17 34 27 61 23 61 -18 0 -52 79 -52 120 0 44 11 72 42 106 19 22 19 22 -6
63 -14 22 -26 52 -26 66 0 14 -4 25 -10 25 -5 0 -10 -13 -10 -28 0 -35 -9 -45
-27 -31 -7 7 -13 32 -13 60 0 42 3 49 23 54 12 3 31 3 42 1 27 -4 65 14 65 32
0 8 8 30 17 49 l17 36 -30 24 c-16 14 -56 42 -89 63 -242 156 -309 236 -307
365 1 35 8 80 17 101 39 94 171 234 324 343 34 24 62 46 63 50 0 3 2 17 4 31
2 14 6 44 10 67 5 34 3 44 -10 49 -23 9 -20 22 7 27 24 4 23 4 -48 27 -36 12
-265 15 -519 7 -68 -3 -79 17 -46 77 13 25 21 49 17 53 -5 4 -12 1 -17 -7 -5
-8 -19 -15 -32 -15 -13 -1 -44 -5 -71 -9 -37 -7 -52 -5 -72 8 -23 15 -27 15
-41 2 -9 -9 -29 -14 -49 -12 -34 2 -41 -6 -36 -37 3 -16 -30 -101 -51 -130
-15 -20 -22 -47 -23 -89 -2 -33 -8 -65 -14 -71 -14 -14 -14 -54 -1 -62 12 -8
13 -165 1 -165 -26 0 -34 33 -29 129 3 58 1 107 -5 117 -6 10 -12 70 -13 132
-2 92 -7 121 -24 154 -16 31 -18 43 -9 54 9 11 7 14 -10 14 -11 0 -21 5 -21
11 0 6 10 9 23 7 13 -1 37 6 53 17 28 20 51 23 167 28 31 1 57 5 57 8 0 10
-25 35 -52 52 -29 18 -36 49 -18 77 14 23 94 -21 111 -61 12 -30 13 -30 20
-10 12 30 23 26 45 -14 10 -19 24 -35 30 -35 24 0 64 42 64 68 1 23 2 25 11
10 20 -35 79 -19 133 34 24 24 35 28 73 26 25 -1 51 -8 59 -15 25 -25 31 -14
20 35 -6 27 -23 61 -39 77 -15 17 -36 53 -47 80 -15 41 -19 45 -19 23 -1 -15
6 -46 15 -68 18 -44 9 -63 -32 -67 -53 -5 -77 155 -32 212 27 35 40 112 23
140 -7 11 -18 49 -25 85 -6 36 -15 72 -20 80 -10 20 6 158 21 176 6 8 22 14
35 14 26 0 30 10 13 27 -6 6 -12 27 -13 47 -3 28 2 39 20 51 13 9 24 22 24 30
0 12 -18 15 -95 14 -77 0 -95 -3 -95 -15 0 -8 -5 -12 -10 -9 -6 4 -8 11 -5 16
11 16 -1 10 -29 -16 -28 -25 -56 -33 -56 -15 0 6 5 10 11 10 5 0 7 5 4 10 -3
6 2 10 12 11 12 0 13 2 5 6 -8 3 -22 -4 -33 -16 -24 -25 -54 -27 -67 -5 -12
22 -35 8 -29 -18 3 -11 2 -31 -3 -46 -5 -15 -11 -44 -15 -64 -7 -43 -48 -73
-77 -57 -13 7 -15 15 -7 42 5 17 9 62 9 99 l0 68 -56 0 -56 0 26 -31 c14 -17
26 -35 26 -40 0 -17 -20 -49 -31 -49 -15 0 -129 90 -136 106 -7 20 -30 17 -38
-3 -6 -17 -7 -17 -19 0 -12 16 -43 17 -395 17 l-381 0 0 -35z m1018 -193 c2
-15 -6 -33 -22 -49 l-25 -25 -12 25 c-6 14 -9 37 -5 52 5 21 12 26 34 23 19
-2 28 -9 30 -26z m-210 -121 c3 -27 0 -32 -15 -29 -19 3 -28 30 -19 54 10 26
31 10 34 -25z m483 20 c20 -16 22 -21 10 -35 -13 -15 -15 -15 -32 0 -19 18
-26 54 -10 54 5 0 19 -8 32 -19z m-427 -117 c7 -19 -1 -54 -13 -54 -19 0 -71
23 -71 31 0 9 54 38 71 39 4 0 10 -7 13 -16z m-136 -21 c6 -19 -25 -16 -32 3
-4 11 -1 14 11 12 9 -2 18 -9 21 -15z m310 -85 c22 -22 14 -41 -14 -34 -26 7
-27 7 -22 -38 7 -56 -22 -93 -37 -47 -3 11 -19 24 -35 30 -17 5 -35 21 -42 35
-12 28 -28 35 -28 12 0 -18 -111 -16 -134 3 -28 23 -18 29 52 29 54 1 154 10
238 21 5 0 15 -4 22 -11z m233 -153 c0 -5 -9 -11 -21 -13 -20 -3 -27 8 -13 22
10 9 34 3 34 -9z m-191 -85 c0 -11 -7 -37 -15 -56 -8 -20 -12 -41 -9 -46 8
-12 -14 -28 -39 -28 -11 0 -27 -10 -37 -22 l-19 -23 -24 25 -25 25 30 63 c25
50 37 64 62 71 54 16 76 13 76 -9z m-1242 -69 c3 -16 -1 -22 -10 -19 -7 3 -15
15 -16 27 -3 16 1 22 10 19 7 -3 15 -15 16 -27z m805 -348 c-7 -2 -21 -2 -30
0 -10 3 -4 5 12 5 17 0 24 -2 18 -5z m308 -707 c22 -55 24 -87 8 -103 -8 -8
-8 -21 0 -46 7 -20 12 -66 11 -104 0 -37 3 -83 6 -102 5 -26 4 -33 -7 -29 -17
6 -38 62 -38 106 -1 18 -8 47 -17 63 -11 23 -15 58 -14 137 1 59 1 125 1 147
0 63 11 76 21 25 6 -25 18 -67 29 -94z m-14 -408 c12 -17 19 -36 16 -41 -8
-12 -53 38 -53 59 0 22 13 16 37 -18z m73 -239 c0 -9 -11 -24 -24 -32 -21 -14
-23 -20 -16 -59 5 -24 5 -47 0 -51 -12 -13 -21 8 -24 58 -1 24 -5 48 -9 51
-13 13 -7 42 15 80 l21 36 18 -33 c10 -19 18 -41 19 -50z m700 -115 c0 -6 -6
-17 -13 -23 -25 -20 -74 69 -50 92 8 8 63 -52 63 -69z m-162 3 c-4 -41 -20
-44 -41 -7 -22 36 -16 49 18 42 22 -4 26 -9 23 -35z m-158 -14 c0 -33 -19 -38
-30 -8 -17 44 -13 57 10 43 11 -7 20 -23 20 -35z m-70 -21 c0 -21 -2 -22 -15
-12 -8 7 -15 27 -15 44 1 29 1 30 15 12 8 -11 15 -31 15 -44z m318 25 c2 -18
-1 -27 -11 -27 -14 0 -29 44 -19 55 12 12 27 -3 30 -28z m-158 -7 c0 -11 -7
-20 -15 -20 -8 0 -15 9 -15 20 0 11 7 20 15 20 8 0 15 -9 15 -20z m267 -115
c19 -22 23 -38 23 -96 0 -86 -11 -109 -50 -109 -38 0 -38 -12 0 -42 29 -23 29
-24 20 -86 -7 -52 -14 -67 -40 -90 -40 -34 -77 -51 -112 -52 -44 0 -59 9 -52
35 3 13 -1 34 -9 47 -16 26 -31 118 -19 118 4 0 25 -9 47 -20 52 -27 75 -26
76 3 2 42 -2 62 -17 73 -24 19 7 37 40 24 21 -8 33 -6 51 6 22 15 25 23 25 81
0 57 -3 66 -27 88 -23 20 -39 24 -85 25 -77 0 -88 -12 -88 -101 0 -61 3 -73
25 -95 30 -30 32 -44 7 -44 -35 0 -56 37 -60 106 -7 103 16 139 94 149 20 2
40 7 43 11 15 15 87 -6 108 -31z m-73 -54 c21 -23 26 -82 9 -88 -8 -3 -13 4
-13 19 0 13 -9 34 -20 48 -11 14 -20 28 -20 33 0 14 27 7 44 -12z m-25 -91
c11 0 10 -4 -6 -15 -18 -13 -26 -13 -42 -3 -12 7 -23 19 -26 26 -10 26 7 32
32 12 14 -11 33 -20 42 -20z m95 -367 c13 -44 15 -94 8 -163 -6 -66 -10 -75
-28 -78 -42 -6 -50 22 -38 146 3 34 3 62 -1 62 -16 0 -45 -22 -45 -34 0 -7 -9
-23 -20 -36 -14 -17 -17 -27 -10 -36 16 -18 30 -73 23 -90 -3 -10 -21 -14 -58
-14 -50 0 -54 2 -64 31 -12 36 -14 113 -3 174 l7 40 60 6 c126 12 163 10 169
-8z m0 -820 c39 -50 45 -80 19 -90 -18 -7 -31 8 -70 79 -22 41 -21 71 2 62 8
-3 30 -26 49 -51z m129 -48 c-2 -22 -8 -80 -14 -129 -16 -115 -27 -126 -118
-122 -36 2 -69 4 -73 5 -17 2 -29 47 -44 152 -11 82 -13 114 -4 123 17 17 26
-6 39 -102 7 -48 15 -97 18 -109 6 -27 38 -30 65 -7 14 14 20 14 33 4 20 -16
27 -8 30 32 3 37 24 166 31 186 2 8 12 12 21 10 14 -3 17 -12 16 -43z m-535
-158 c15 -10 16 -59 0 -75 -7 -7 -27 -12 -45 -12 -18 0 -43 -6 -54 -12 -18
-11 -23 -10 -40 11 -23 28 -24 44 -4 74 12 20 23 23 72 22 32 0 64 -4 71 -8z
m-18 -303 c0 -8 -4 -14 -10 -14 -5 0 -10 9 -10 21 0 11 5 17 10 14 6 -3 10
-13 10 -21z m557 -36 c-3 -7 -5 -2 -5 12 0 14 2 19 5 13 2 -7 2 -19 0 -25z
m-997 -1244 c0 -8 -4 -12 -10 -9 -5 3 -10 10 -10 16 0 5 5 9 10 9 6 0 10 -7
10 -16z"/>
<path d="M4437 19470 c-3 -11 0 -21 6 -22 7 0 23 -2 37 -4 14 -1 36 -5 49 -10
20 -6 23 -4 18 9 -3 9 -1 20 6 24 13 8 -28 20 -79 22 -24 1 -33 -4 -37 -19z"/>
<path d="M4692 19480 c-42 -10 -49 -17 -36 -38 23 -36 84 -22 84 19 0 24 -9
27 -48 19z"/>
<path d="M4886 19477 c7 -19 86 -39 120 -30 16 4 33 7 39 8 5 0 11 8 13 18 3
15 -6 17 -87 17 -70 0 -89 -3 -85 -13z"/>
<path d="M5678 19469 c-12 -19 -17 -20 -36 -10 -23 12 -30 8 -84 -55 -9 -10
-27 -27 -41 -36 -15 -11 -26 -30 -30 -53 -3 -21 -14 -43 -24 -50 -17 -13 -17
-14 2 -29 25 -19 47 -20 90 -2 43 18 52 9 71 -77 33 -145 37 -178 25 -203 -10
-22 -8 -24 14 -24 13 0 36 5 50 12 21 10 29 8 48 -9 21 -20 128 -41 186 -36
13 1 43 -11 67 -27 23 -17 47 -30 52 -30 5 0 15 -7 22 -15 17 -20 23 -19 39 7
11 18 11 23 -1 32 -8 6 -23 32 -33 58 -14 38 -15 51 -5 62 19 24 1 40 -21 20
-11 -9 -19 -12 -19 -6 0 6 -7 9 -15 6 -8 -4 -15 -1 -15 5 0 7 -8 11 -17 9 -11
-2 -19 5 -21 17 -5 26 -30 45 -60 45 -13 0 -37 9 -53 21 -16 11 -29 16 -29 10
0 -6 5 -11 10 -11 19 0 10 -18 -12 -23 -17 -5 -30 2 -55 29 -25 28 -38 35 -55
31 -27 -7 -38 -1 -61 35 -24 39 -22 46 18 54 19 3 51 14 71 24 20 11 42 16 49
14 8 -3 31 6 52 20 21 14 43 26 50 26 7 0 13 5 13 10 0 18 43 11 77 -12 18
-13 33 -26 33 -30 0 -5 21 -8 47 -8 30 0 53 -6 65 -17 16 -14 22 -15 40 -4 16
10 29 10 70 0 63 -17 71 -8 86 93 9 58 8 77 -5 109 l-15 39 -313 0 c-308 0
-313 0 -327 -21z m92 -436 c0 -7 -4 -13 -10 -13 -5 0 -10 12 -10 28 0 21 2 24
10 12 5 -8 10 -21 10 -27z"/>
<path d="M6418 19485 c-3 -3 -3 -38 -1 -78 3 -41 -1 -91 -8 -117 -6 -25 -12
-92 -13 -150 l-1 -105 -48 -72 c-41 -62 -46 -75 -37 -97 6 -17 6 -26 0 -26 -6
0 -10 -10 -10 -21 0 -16 -5 -20 -20 -16 -35 9 -33 -13 4 -49 20 -19 36 -34 37
-32 6 25 6 39 -2 44 -5 3 -9 14 -9 25 0 13 7 19 24 19 13 0 27 -6 29 -12 4
-10 8 -10 16 2 6 9 32 15 78 17 116 5 167 16 171 36 3 15 0 18 -16 13 -15 -5
-22 -1 -27 14 -4 12 -5 22 -3 24 1 1 20 14 40 29 20 15 43 27 50 27 8 0 31 9
53 20 62 31 82 27 95 -20 6 -22 16 -40 23 -40 7 0 4 -5 -5 -11 -10 -5 -18 -17
-18 -26 0 -9 -7 -24 -16 -34 -14 -16 -13 -19 7 -38 23 -21 50 -27 63 -14 3 4
15 7 26 8 22 2 28 -20 8 -28 -8 -3 -6 -7 7 -12 11 -3 28 -11 38 -16 13 -7 23
-6 33 2 21 17 17 29 -15 40 -16 6 -32 17 -35 25 -3 8 -12 14 -21 14 -25 0 -17
30 12 41 27 10 81 4 69 -8 -3 -4 1 -15 10 -25 16 -17 18 -17 30 0 9 13 9 19 1
24 -9 6 -9 8 1 8 20 0 71 63 72 88 0 35 24 26 58 -22 31 -43 32 -47 22 -92 -6
-27 -16 -54 -22 -62 -7 -8 -8 -16 -2 -20 5 -4 10 -25 12 -47 2 -22 8 -44 14
-50 8 -7 9 -6 4 2 -7 13 7 18 77 28 33 4 52 13 61 28 16 24 39 100 40 132 2
35 35 30 51 -9 22 -52 33 -51 27 3 -3 38 -1 49 12 54 25 10 46 -3 46 -27 0
-32 11 -66 21 -66 5 0 27 -11 49 -25 32 -20 40 -31 40 -55 0 -17 4 -30 9 -30
5 0 5 -15 2 -32 -8 -34 -11 -35 -70 -22 -27 5 -33 4 -29 -7 3 -8 23 -16 49
-19 34 -4 45 -9 47 -25 2 -11 6 -27 9 -35 3 -8 5 -21 4 -27 -1 -7 1 -13 4 -13
14 0 34 29 38 56 4 29 4 29 6 -3 1 -36 15 -41 48 -18 12 8 28 12 37 9 9 -3 16
-2 16 4 0 6 15 9 33 8 l34 -3 -7 39 c-6 33 -5 37 8 26 8 -7 26 -37 39 -68 17
-39 39 -66 75 -95 28 -22 71 -60 95 -85 42 -44 53 -43 32 2 -7 16 -7 32 0 51
12 31 41 37 41 7 0 -26 4 -25 34 5 22 22 23 26 10 40 -9 8 -23 15 -32 15 -23
0 -62 28 -62 44 0 9 19 15 58 19 70 6 83 -6 81 -78 0 -27 2 -70 6 -95 9 -55
-9 -79 -44 -60 -12 6 -21 15 -21 20 0 6 -5 10 -11 10 -7 0 -9 -28 -7 -80 3
-86 1 -90 -53 -90 -23 0 -31 -6 -43 -35 -18 -43 -36 -44 -58 -4 -22 38 -22 53
-1 86 16 24 16 26 0 38 -9 7 -17 19 -17 27 0 21 27 41 45 34 25 -9 17 11 -16
38 -33 28 -46 25 -78 -17 -12 -17 -14 -17 -32 -1 -21 19 -83 44 -111 44 -10 0
-34 -9 -55 -21 -33 -19 -38 -19 -49 -5 -6 9 -24 16 -40 17 -16 0 -22 3 -14 6
8 2 22 7 30 9 13 4 13 6 0 14 -8 5 -17 5 -20 1 -11 -16 -59 -21 -67 -7 -10 18
-98 32 -107 17 -5 -8 -13 -8 -27 -1 -10 6 -68 12 -128 14 -64 1 -116 7 -124
14 -8 7 -17 9 -21 5 -3 -4 -16 3 -27 16 -14 15 -24 19 -32 12 -14 -11 -45 -15
-99 -13 -47 2 -108 52 -108 89 0 14 -4 22 -10 18 -6 -4 -8 -16 -5 -28 5 -16 4
-18 -3 -8 -6 8 -19 12 -31 8 -12 -3 -60 1 -107 8 -67 11 -107 12 -182 4 -125
-14 -117 -14 -187 0 -74 14 -145 19 -145 9 0 -4 -14 1 -32 12 -17 10 -35 17
-40 14 -4 -3 -24 2 -43 12 -27 12 -38 14 -49 5 -12 -10 -93 -14 -255 -11 -24
1 -67 -7 -95 -16 -28 -9 -57 -18 -64 -20 -8 -2 -12 -12 -10 -21 2 -14 13 -18
45 -19 22 0 53 -8 68 -18 22 -14 38 -17 74 -12 25 4 53 7 61 7 25 0 151 -31
172 -42 13 -7 29 -7 53 1 19 6 40 8 46 4 6 -3 15 0 20 7 7 11 11 11 17 2 11
-18 136 -37 159 -25 24 13 38 5 50 -32 14 -44 35 -46 33 -5 -3 49 -2 53 15 39
8 -7 15 -29 15 -50 0 -41 6 -51 26 -43 8 3 14 19 14 38 0 38 16 55 25 26 3
-10 20 -24 38 -31 18 -6 39 -15 47 -20 20 -10 61 -18 124 -25 26 -3 66 -10 88
-16 31 -8 44 -7 56 3 27 21 61 38 75 38 20 0 47 -33 47 -58 0 -12 6 -22 13
-22 8 0 22 -9 33 -21 13 -14 25 -18 42 -14 18 4 28 0 38 -14 12 -16 23 -19 60
-15 59 5 64 9 64 45 0 20 4 29 13 27 15 -6 31 -228 17 -242 -15 -15 -21 -1
-24 53 -2 28 -6 54 -9 58 -4 3 -7 2 -7 -4 0 -5 -11 -23 -25 -39 -14 -16 -25
-35 -25 -41 0 -18 -31 -16 -93 5 -32 10 -82 17 -132 17 -76 0 -80 -1 -83 -23
-3 -16 -8 -21 -20 -18 -19 6 -145 25 -212 32 -25 3 -83 9 -130 14 -47 5 -108
14 -136 20 -35 8 -73 9 -122 3 -62 -8 -75 -7 -109 11 -64 33 -155 45 -334 42
-155 -2 -170 -4 -213 -26 -25 -14 -46 -31 -46 -38 0 -24 -30 -25 -50 -1 -11
13 -25 30 -31 37 -7 9 -24 11 -52 7 -23 -3 -102 -7 -175 -9 -73 -2 -135 -6
-138 -9 -3 -3 12 -11 33 -17 48 -16 76 -39 64 -54 -13 -15 12 -43 84 -96 85
-62 276 -232 317 -282 47 -57 74 -113 82 -169 7 -46 6 -48 -49 -113 -40 -47
-63 -66 -80 -66 -15 0 -26 -7 -30 -20 -3 -11 -16 -25 -27 -31 -12 -6 -59 -40
-106 -75 -46 -35 -88 -64 -92 -64 -15 0 -63 -72 -52 -79 5 -3 13 -32 17 -63 5
-39 12 -58 21 -58 8 0 14 -10 14 -22 0 -17 3 -20 9 -9 13 20 45 6 37 -16 -4
-9 -1 -38 5 -64 10 -39 10 -51 -1 -64 -12 -14 -15 -14 -31 1 -18 16 -19 16
-20 -2 -2 -51 -7 -69 -26 -83 -16 -13 -18 -21 -10 -38 9 -20 11 -21 32 -7 17
11 29 12 50 4 15 -6 35 -8 44 -5 28 9 49 -17 53 -64 3 -51 -17 -69 -28 -24
-12 55 -16 63 -25 58 -5 -4 -6 -24 -3 -45 4 -22 4 -47 0 -56 -10 -25 -36 2
-36 37 0 48 -17 42 -31 -11 -7 -28 -19 -50 -26 -50 -19 0 -16 -23 7 -48 11
-12 20 -26 20 -31 0 -19 47 -42 73 -36 35 9 57 -25 57 -88 0 -57 -23 -62 -28
-6 -5 44 -22 67 -34 45 -5 -9 -7 -20 -3 -25 8 -14 -14 -63 -25 -56 -5 3 -10
18 -10 33 0 32 -15 59 -24 44 -3 -6 -3 -17 0 -26 3 -8 -1 -30 -10 -47 -9 -18
-16 -43 -16 -57 0 -14 -7 -34 -16 -44 -21 -22 -12 -26 66 -32 30 -2 59 -5 63
-5 13 -2 37 -68 37 -102 0 -42 -21 -33 -34 15 -13 46 -31 44 -32 -4 -2 -63 -2
-64 -19 -50 -8 7 -15 27 -15 44 0 39 -19 73 -21 39 -1 -13 -3 -27 -4 -33 -1
-5 -3 -18 -4 -29 0 -10 -11 -21 -23 -25 -18 -5 -20 -8 -9 -15 7 -5 11 -14 7
-20 -4 -6 -2 -20 4 -31 9 -17 8 -20 -13 -20 -13 0 -31 -6 -41 -13 -16 -12 -8
-15 60 -25 44 -7 214 -19 379 -27 381 -19 389 -20 419 -56 34 -41 38 -93 34
-546 l-3 -393 -30 -30 -31 -31 -94 11 c-52 5 -149 10 -215 11 -66 0 -142 1
-170 2 -45 1 -245 1 -353 -1 -34 -1 -49 -7 -68 -28 -41 -43 -61 -39 301 -58
149 -8 369 -21 490 -31 236 -18 279 -29 302 -75 10 -19 13 -123 13 -407 l0
-382 -23 -27 -24 -27 -299 18 c-218 13 -367 16 -549 11 -337 -7 -325 -6 -325
-37 0 -15 5 -19 18 -15 9 3 43 8 74 11 50 4 59 3 68 -15 9 -17 21 -19 94 -19
46 1 89 5 97 9 7 5 27 3 47 -6 40 -16 108 -19 117 -4 5 8 11 8 20 0 10 -8 19
-8 34 2 16 10 23 10 33 0 17 -17 75 -15 86 4 8 14 10 14 21 0 16 -19 42 -21
58 -5 8 8 17 8 31 0 13 -7 298 -10 898 -11 964 0 1140 -4 1149 -28 15 -41 19
-41 -788 -42 -542 0 -775 -4 -784 -11 -7 -7 -13 -22 -13 -34 0 -17 -6 -22 -27
-22 -16 -1 -37 -2 -48 -4 -13 -3 -20 1 -20 11 0 10 8 14 23 12 25 -4 55 15 46
29 -3 5 -50 9 -105 9 -83 0 -99 -3 -99 -16 0 -14 -2 -14 -22 0 -32 22 -55 20
-62 -6 -6 -23 -7 -23 -19 -3 -17 29 -81 31 -118 4 -30 -21 -49 -18 -49 8 0 13
-8 15 -41 10 -23 -3 -46 -11 -50 -19 -7 -10 -11 -9 -21 4 -11 15 -21 17 -68 9
-40 -6 -59 -5 -75 5 -15 10 -30 11 -60 4 -22 -5 -59 -10 -82 -10 -23 0 -45 -5
-48 -10 -4 -7 -13 -7 -26 0 -20 11 -91 8 -122 -5 -10 -4 -35 -5 -56 -2 -28 3
-44 0 -56 -12 -15 -15 -17 -15 -31 4 -14 19 -15 19 -21 -3 -4 -18 -11 -22 -42
-20 -20 2 -37 -1 -38 -7 -2 -5 12 -10 30 -10 35 0 46 -20 27 -54 -7 -15 -21
-21 -43 -21 -36 0 -81 -24 -56 -30 8 -2 690 -5 1517 -7 l1502 -3 0 35 0 35 88
1 c48 0 130 1 182 2 l95 2 3 183 2 182 35 0 35 0 -4 1913 c-2 1051 -4 1937 -4
1967 0 30 0 111 -1 180 0 69 0 151 -1 183 0 43 -3 58 -12 54 -7 -2 -13 -17
-13 -33 -1 -40 -17 -66 -38 -58 -23 8 -80 103 -81 134 -1 16 -9 29 -23 35 -35
15 -37 35 -4 35 25 0 56 20 47 31 -2 2 -6 23 -10 47 -5 33 -3 42 8 42 8 0 27
5 41 12 22 10 23 13 11 27 -25 29 -29 72 -9 108 10 18 21 32 26 30 5 -1 10
-29 12 -61 4 -64 19 -92 30 -57 3 12 11 21 16 21 5 0 9 113 9 280 l0 280 -40
0 -40 0 0 180 0 180 -180 0 -180 0 0 35 0 35 -410 0 -410 0 0 -44 c0 -35 -7
-54 -35 -90 -19 -26 -35 -49 -35 -51 0 -5 -78 -111 -116 -157 -18 -23 -34 -23
-34 0 0 35 19 82 48 119 17 21 33 48 37 61 4 13 27 52 51 88 24 35 44 66 44
69 0 3 -26 5 -58 5 -58 0 -58 0 -82 -42 -13 -24 -48 -69 -78 -100 -70 -72 -91
-106 -98 -154 -2 -21 -9 -43 -14 -48 -12 -12 -60 9 -60 25 0 27 34 88 56 99
12 7 25 20 28 29 14 35 38 73 52 78 8 3 14 15 14 28 0 12 7 28 15 35 8 7 15
21 15 31 0 17 -8 19 -81 19 l-81 0 3 -32 c4 -57 0 -68 -21 -68 -11 0 -23 8
-27 18 -3 9 -21 32 -39 50 -33 32 -33 32 -137 32 -57 0 -106 -2 -109 -5z
m1170 -242 c13 -26 3 -103 -14 -103 -14 0 -44 49 -44 71 0 14 29 49 41 49 5 0
12 -8 17 -17z m-701 -376 c-2 -7 -4 -16 -3 -21 1 -9 -44 -29 -51 -23 -6 6 24
59 39 68 14 9 23 -4 15 -24z m1109 -94 c11 -60 -39 -169 -72 -156 -17 6 -17 5
12 108 25 92 48 111 60 48z m94 -93 c0 -25 -18 -36 -26 -16 -8 21 3 49 16 41
5 -3 10 -15 10 -25z m-1767 -133 c2 -7 -9 -22 -24 -35 l-29 -24 0 22 c0 12 -4
18 -10 15 -5 -3 -10 3 -10 14 0 29 62 36 73 8z m1408 -254 c13 -36 4 -60 -16
-43 -15 13 -20 51 -8 63 10 11 13 9 24 -20z m67 -212 c0 -53 5 -88 16 -109 16
-32 16 -32 -8 -32 -13 0 -27 7 -30 17 -8 19 -6 193 1 206 13 22 22 -12 21 -82z
m-2531 -8 c-4 -3 -13 0 -22 7 -12 10 -13 16 -3 27 11 13 14 12 22 -6 5 -12 6
-24 3 -28z m2737 -68 c-4 -8 -8 -15 -10 -15 -2 0 -4 7 -4 15 0 8 4 15 10 15 5
0 7 -7 4 -15z m-1850 -72 c3 -25 4 -48 2 -50 -9 -9 -26 38 -32 84 -5 43 -4 46
9 30 8 -9 17 -38 21 -64z m1839 -21 c22 -38 18 -47 -17 -38 -29 7 -50 40 -42
63 9 23 38 11 59 -25z m-2366 6 c7 -6 13 -28 13 -49 0 -30 -4 -39 -22 -45 -40
-12 -91 80 -61 110 9 9 53 -1 70 -16z m2246 15 c-7 -2 -19 -2 -25 0 -7 3 -2 5
12 5 14 0 19 -2 13 -5z m250 -68 c8 -19 -13 -31 -23 -14 -9 14 -4 29 10 29 4
0 10 -7 13 -15z m169 -60 c23 -31 -19 -35 -53 -5 l-24 21 35 -3 c19 -2 38 -7
42 -13z m68 -47 c0 -13 -43 -6 -47 8 -2 7 6 10 22 7 14 -3 25 -10 25 -15z
m-2215 -155 c-3 -24 -10 -43 -16 -43 -10 0 -13 113 -2 124 13 13 24 -38 18
-81z m-11 -207 c-4 -61 -8 -151 -8 -201 -1 -96 -18 -131 -26 -55 -5 48 5 294
15 348 4 19 10 30 17 26 7 -5 8 -42 2 -118z m-394 -327 c11 -19 -1 -50 -19
-49 -12 1 -42 50 -36 60 11 17 44 11 55 -11z m-308 -136 c11 -13 15 -36 13
-80 -2 -73 -8 -84 -28 -51 -20 31 -27 148 -9 148 5 0 16 -8 24 -17z m155 -29
c2 -6 -5 -14 -17 -17 -28 -7 -25 -39 5 -65 24 -21 33 -42 18 -42 -5 0 -23 9
-41 20 -32 20 -33 23 -27 63 4 23 13 45 19 49 15 10 38 6 43 -8z m361 -62 c2
-51 0 -62 -13 -62 -8 0 -15 3 -16 8 0 4 -2 25 -4 47 -4 49 3 77 18 72 7 -2 13
-30 15 -65z m-218 7 c0 -11 -30 -12 -30 -1 0 4 -3 18 -6 32 l-6 25 21 -24 c12
-13 21 -27 21 -32z m-53 -32 c24 -20 32 -70 12 -83 -17 -10 -35 16 -48 68 -14
59 -14 79 1 53 7 -11 22 -28 35 -38z m151 29 c3 -12 -1 -17 -10 -14 -7 3 -15
13 -16 22 -3 12 1 17 10 14 7 -3 15 -13 16 -22z m50 -51 c-3 -3 -9 2 -12 12
-6 14 -5 15 5 6 7 -7 10 -15 7 -18z m-192 -127 c9 -14 12 -148 4 -148 -13 0
-29 47 -34 103 -5 46 -3 57 8 57 8 0 18 -5 22 -12z m-161 -50 c28 -24 35 -78
10 -78 -17 0 -30 23 -38 68 -8 38 -5 39 28 10z m95 -24 c0 -13 -4 -24 -10 -24
-5 0 -10 14 -10 31 0 17 4 28 10 24 6 -3 10 -17 10 -31z m72 -199 c8 -17 8
-32 1 -47 -6 -15 -6 -31 1 -50 12 -32 1 -48 -18 -27 -12 11 -23 106 -17 142 2
16 22 6 33 -18z m-72 -65 c0 -22 -4 -40 -10 -40 -5 0 -10 18 -10 40 0 22 5 40
10 40 6 0 10 -18 10 -40z m-72 -18 c2 -23 -1 -32 -11 -32 -16 0 -27 21 -27 52
0 35 35 17 38 -20z m138 -174 c10 -16 13 -148 4 -148 -17 0 -28 29 -34 93 -5
55 -4 67 8 67 8 0 18 -6 22 -12z m-150 -58 c9 0 14 -11 14 -35 0 -19 -4 -35
-10 -35 -14 0 -37 40 -45 80 -7 34 -6 35 10 13 9 -13 23 -23 31 -23z m84 -25
c0 -19 -4 -35 -10 -35 -5 0 -10 16 -10 35 0 19 5 35 10 35 6 0 10 -16 10 -35z
m658 -1168 c2 -15 -1 -27 -7 -27 -6 0 -11 3 -11 8 0 4 -3 18 -7 31 -4 18 -2
23 8 19 8 -2 15 -17 17 -31z"/>
<path d="M4350 19318 c1 -17 35 -58 48 -58 5 0 13 -7 16 -16 4 -9 9 -14 13
-11 3 4 14 0 25 -7 24 -17 68 -9 68 13 0 19 -76 65 -91 55 -5 -3 -21 4 -35 15
-30 24 -44 27 -44 9z"/>
<path d="M5153 19269 c32 -132 52 -191 68 -200 23 -12 25 -37 4 -45 -18 -7
-18 -14 -6 -48 9 -23 12 -24 40 -13 38 14 50 41 63 145 8 62 8 90 0 103 -9 15
-8 19 8 24 48 15 6 37 -75 39 -27 1 -63 6 -79 10 -27 8 -29 7 -23 -15z"/>
<path d="M4996 19220 c-14 -36 -19 -40 -50 -40 -38 0 -189 -82 -161 -88 8 -2
15 -8 15 -14 0 -17 -44 -1 -100 37 l-52 35 -128 0 c-164 0 -177 -5 -175 -62 1
-23 -2 -65 -5 -92 -5 -34 -3 -57 6 -75 8 -14 14 -32 14 -39 0 -6 11 -22 25
-34 19 -17 25 -31 25 -65 0 -38 4 -46 33 -63 17 -11 39 -20 48 -20 9 0 20 -7
23 -16 8 -22 8 -24 -7 -24 -20 0 -38 -57 -27 -86 5 -13 7 -24 3 -24 -3 0 2 -9
12 -20 24 -26 33 -25 61 6 22 22 30 25 73 20 32 -4 62 0 84 9 19 8 37 11 41 8
3 -4 6 -1 6 6 0 7 -17 19 -37 28 -21 8 -46 24 -56 34 -10 11 -22 17 -28 14 -5
-4 -9 -1 -9 5 0 7 9 14 20 17 14 4 19 11 15 23 -3 10 0 22 7 27 7 4 18 17 24
28 7 12 26 22 50 26 21 3 30 7 18 8 -27 1 -67 54 -52 69 8 8 6 23 -5 54 -26
67 -22 79 36 116 42 27 55 32 69 23 13 -8 23 -8 37 1 17 10 23 8 39 -13 l20
-24 22 28 c12 15 25 27 30 27 5 0 27 -19 49 -42 36 -38 41 -49 41 -90 0 -39 4
-48 21 -53 12 -4 31 -3 43 3 11 6 29 13 40 16 13 4 16 11 11 24 -5 9 -9 27
-10 40 -1 13 -14 36 -28 52 -18 18 -27 39 -27 60 0 23 -5 33 -19 37 -10 2 -28
18 -41 35 -21 29 -22 50 -5 91 5 12 3 17 -8 17 -8 0 -22 -18 -31 -40z m-326
-358 c0 -15 -5 -22 -12 -20 -18 6 -32 52 -24 74 7 17 9 17 21 -6 8 -14 14 -35
15 -48z"/>
<path d="M5475 19128 c12 -91 94 -206 140 -196 15 2 12 9 -19 43 -30 32 -36
43 -28 60 9 21 1 129 -11 141 -4 4 -7 -16 -7 -46 0 -43 -2 -50 -13 -41 -8 6
-22 29 -32 51 -25 56 -38 51 -30 -12z"/>
<path d="M6050 19110 c0 -5 5 -10 10 -10 6 0 10 5 10 10 0 6 -4 10 -10 10 -5
0 -10 -4 -10 -10z"/>
<path d="M6110 19089 c0 -5 5 -7 10 -4 6 3 10 8 10 11 0 2 -4 4 -10 4 -5 0
-10 -5 -10 -11z"/>
<path d="M6053 19084 c3 -3 2 -17 -3 -30 -8 -20 -6 -24 9 -24 10 0 21 6 24 13
5 14 -15 47 -28 47 -5 0 -6 -3 -2 -6z"/>
<path d="M6902 18748 c5 -15 28 -23 28 -10 0 5 -7 13 -16 16 -10 4 -14 1 -12
-6z"/>
<path d="M6930 18635 c0 -8 4 -15 10 -15 5 0 7 7 4 15 -4 8 -8 15 -10 15 -2 0
-4 -7 -4 -15z"/>
<path d="M7160 18638 c-1 -2 -3 -25 -5 -53 -4 -48 -4 -49 10 -23 15 27 17 78
3 78 -4 0 -8 -1 -8 -2z"/>
<path d="M5035 18610 c-11 -4 -31 -22 -44 -40 -31 -42 -18 -55 69 -68 83 -13
100 -1 100 70 l0 48 -52 -1 c-29 0 -62 -4 -73 -9z"/>
<path d="M8370 18432 c0 -19 36 -59 45 -50 7 7 -25 68 -36 68 -5 0 -9 -8 -9
-18z"/>
<path d="M8391 18224 c0 -11 3 -14 6 -6 3 7 2 16 -1 19 -3 4 -6 -2 -5 -13z"/>
<path d="M7245 18220 c3 -5 8 -10 11 -10 2 0 4 5 4 10 0 6 -5 10 -11 10 -5 0
-7 -4 -4 -10z"/>
<path d="M4760 18009 c0 -5 5 -7 10 -4 6 3 10 8 10 11 0 2 -4 4 -10 4 -5 0
-10 -5 -10 -11z"/>
<path d="M5370 17820 c-7 -12 -10 -30 -7 -40 2 -9 0 -26 -6 -36 -16 -27 -27
-146 -16 -166 9 -18 48 -25 50 -10 0 4 2 38 4 76 4 59 9 74 31 97 24 25 25 29
11 35 -10 3 -17 12 -17 19 0 6 -9 20 -19 29 -19 17 -20 17 -31 -4z"/>
<path d="M4516 17694 c-10 -27 -6 -110 6 -122 18 -18 28 -15 28 8 0 10 5 30
11 43 9 19 7 31 -5 56 -18 34 -31 39 -40 15z"/>
<path d="M4621 17687 c-15 -39 -14 -92 3 -106 11 -9 15 -8 20 5 9 24 7 97 -4
114 -7 11 -11 9 -19 -13z"/>
<path d="M4750 17646 c0 -8 5 -18 10 -21 6 -3 10 3 10 14 0 12 -4 21 -10 21
-5 0 -10 -6 -10 -14z"/>
<path d="M5236 17634 c-4 -10 -1 -23 7 -32 20 -19 28 -2 13 27 -12 21 -14 22
-20 5z"/>
<path d="M4690 17600 c0 -5 5 -10 10 -10 6 0 10 5 10 10 0 6 -4 10 -10 10 -5
0 -10 -4 -10 -10z"/>
<path d="M5413 17487 c-8 -17 -7 -30 4 -51 16 -31 36 -30 41 3 9 60 -24 94
-45 48z"/>
<path d="M5505 17499 c-4 -5 -3 -22 1 -37 4 -15 6 -35 5 -44 -3 -23 44 -25 53
-2 17 45 2 94 -29 94 -13 0 -27 -5 -30 -11z"/>
<path d="M4408 17489 c-23 -13 -25 -91 -3 -109 25 -20 37 0 23 38 -7 17 -9 34
-6 38 11 10 28 -6 28 -27 0 -13 7 -19 24 -19 13 0 26 -7 30 -15 8 -23 34 -18
52 10 13 20 15 33 8 58 -13 43 -37 46 -56 7 l-15 -32 -22 31 c-24 33 -35 37
-63 20z"/>
<path d="M4627 17493 c-6 -11 31 -44 38 -34 8 14 -6 41 -20 41 -8 0 -16 -3
-18 -7z"/>
<path d="M4594 17457 c-9 -23 -1 -48 18 -61 27 -17 31 -1 9 40 -15 28 -22 34
-27 21z"/>
<path d="M5337 17454 c-10 -11 -8 -44 2 -44 6 0 13 4 16 10 8 12 -9 43 -18 34z"/>
<path d="M4710 17426 c0 -8 4 -17 9 -20 5 -4 7 3 4 14 -6 23 -13 26 -13 6z"/>
<path d="M4554 17316 c-12 -31 0 -61 25 -61 31 0 47 38 25 60 -19 19 -43 19
-50 1z"/>
<path d="M4660 17281 c0 -5 5 -13 10 -16 6 -3 10 -2 10 4 0 5 -4 13 -10 16 -5
3 -10 2 -10 -4z"/>
<path d="M5276 16925 c4 -8 10 -15 15 -15 4 0 6 7 3 15 -4 8 -10 15 -15 15 -4
0 -6 -7 -3 -15z"/>
<path d="M4710 16810 c0 -8 5 -22 10 -30 9 -13 10 -13 10 0 0 8 -5 22 -10 30
-9 13 -10 13 -10 0z"/>
<path d="M5310 15760 c0 -5 16 -10 35 -10 52 0 75 -31 75 -99 0 -31 -4 -61 -8
-67 -4 -6 -31 -11 -60 -11 -30 0 -59 -6 -65 -12 -13 -13 -1 -17 74 -26 54 -6
55 -7 65 -45 6 -21 9 -52 6 -69 -3 -26 -8 -30 -23 -26 -14 5 -19 1 -19 -12 0
-11 -6 -28 -14 -38 -13 -18 -14 -18 -25 3 -16 29 -14 58 6 77 15 16 15 19 1
43 -9 15 -21 28 -27 30 -17 6 -32 -46 -25 -89 5 -30 3 -39 -8 -39 -8 0 -21 12
-28 28 -11 22 -14 24 -18 9 -5 -22 12 -44 50 -63 16 -8 33 -26 38 -40 9 -22
15 -25 38 -19 33 7 58 -15 48 -41 -4 -11 -14 -14 -35 -9 -52 11 -49 -26 3 -39
46 -11 17 -26 -63 -33 -77 -6 -106 -22 -44 -24 64 -2 107 -9 116 -18 12 -12
21 -103 13 -134 -5 -20 -12 -24 -48 -24 -24 0 -59 -3 -79 -7 -34 -6 -38 -4
-46 21 -5 16 -9 59 -7 96 1 48 -1 67 -9 64 -8 -2 -13 -38 -15 -100 -2 -82 0
-98 14 -104 9 -3 62 -6 117 -7 l102 -1 -1 115 c-1 63 -3 128 -5 143 -3 32 15
57 31 41 6 -6 13 -28 17 -50 3 -22 17 -52 33 -69 50 -54 52 -118 3 -113 -19 2
-28 -3 -34 -20 -12 -32 21 -64 64 -60 30 3 32 5 37 52 3 27 10 51 16 53 14 5
54 -48 54 -70 0 -23 24 -39 38 -25 9 9 17 7 32 -7 18 -16 23 -17 30 -5 6 8 10
19 10 24 0 5 10 0 23 -12 12 -12 34 -23 47 -24 23 -3 25 0 23 33 l-2 36 47 -2
c39 -2 51 -8 77 -37 33 -38 73 -63 83 -53 11 11 11 279 0 292 -16 20 -28 5
-28 -33 0 -50 -29 -41 -43 14 -4 17 1 27 21 40 48 31 62 46 62 68 0 50 -32 76
-43 34 -6 -25 -29 -26 -49 -2 -20 23 -31 115 -15 131 9 10 6 17 -15 33 -26 19
-39 58 -19 58 26 0 41 -15 41 -40 0 -20 6 -31 20 -35 29 -9 43 -40 25 -55 -19
-16 -19 -39 -1 -46 22 -9 56 27 56 59 0 16 -11 42 -25 59 -27 32 -32 50 -12
43 30 -11 37 11 39 119 1 80 -3 111 -13 121 -9 8 -53 16 -120 20 l-106 7 -7
-32 c-11 -56 -6 -174 8 -199 10 -18 11 -29 3 -42 -8 -14 -5 -25 18 -55 29 -38
27 -65 -7 -72 -18 -4 -41 44 -32 70 3 10 1 24 -4 31 -5 7 -13 28 -17 47 -4 19
-20 49 -35 65 -16 17 -32 42 -35 58 -6 22 -4 27 12 27 26 0 43 19 43 47 0 16
-6 23 -18 23 -11 0 -29 9 -42 20 -24 21 -55 26 -65 11 -3 -6 9 -26 26 -46 17
-20 29 -38 26 -42 -4 -3 -24 -6 -44 -7 l-38 -1 -6 -55 c-6 -62 -3 -80 16 -80
16 0 25 22 25 61 0 16 4 29 9 29 12 0 21 -26 21 -60 0 -34 13 -45 30 -25 16
19 30 10 30 -21 0 -27 -3 -28 -31 -14 -32 18 -35 -15 -4 -56 27 -35 28 -68 1
-58 -8 3 -20 20 -27 37 -14 33 -21 43 -75 101 -21 22 -34 47 -34 63 0 14 -11
41 -26 60 -27 35 -25 53 6 53 23 0 33 26 20 51 -13 23 -23 24 -40 4 -7 -8 -23
-15 -36 -15 -20 0 -24 -5 -23 -27 0 -16 4 -37 8 -48 5 -11 5 -24 1 -30 -4 -5
-11 -36 -14 -68 -6 -47 -5 -58 9 -63 23 -9 29 1 27 46 -2 29 1 40 12 40 16 0
26 -21 26 -54 0 -12 7 -31 15 -42 17 -22 20 -90 4 -100 -16 -9 -34 13 -34 43
0 14 -6 28 -12 30 -8 3 -13 -4 -13 -16 0 -22 -8 -25 -34 -15 -11 4 -14 13 -10
31 5 17 1 28 -12 37 -15 12 -18 30 -18 137 l-1 124 -67 3 c-43 2 -68 -1 -68
-8z m600 -110 c0 -43 4 -61 16 -68 14 -8 14 -10 0 -21 -30 -25 -46 4 -46 80 0
55 3 69 15 69 12 0 15 -13 15 -60z m124 34 c3 -9 6 -43 6 -76 0 -49 -3 -59
-16 -56 -21 4 -30 148 -9 148 7 0 16 -7 19 -16z m-515 -340 c18 16 20 15 45
-14 17 -21 26 -43 26 -65 0 -20 6 -38 15 -42 18 -10 24 -54 8 -60 -6 -2 -16
12 -23 31 -6 20 -15 36 -19 36 -4 0 -20 18 -37 40 -33 45 -40 48 -49 20 -3
-11 -12 -20 -20 -20 -20 0 -34 51 -22 78 l10 22 24 -21 c22 -21 24 -21 42 -5z
m173 -1 c24 -22 24 -53 -2 -53 -13 0 -22 -9 -27 -31 -5 -16 -13 -31 -18 -32
-11 -2 -20 97 -11 119 7 19 36 18 58 -3z m138 -37 c-1 -21 -1 -21 -15 -2 -21
27 -20 53 0 36 8 -7 15 -22 15 -34z m112 -36 c3 -30 8 -64 13 -75 5 -13 -6 -7
-32 18 -35 33 -41 36 -53 22 -7 -9 -28 -15 -50 -15 -30 0 -43 6 -60 28 -19 24
-20 27 -5 30 9 2 24 -3 34 -12 22 -20 40 -20 47 -1 4 8 12 15 18 15 7 0 25 14
41 30 16 17 32 27 36 23 4 -5 9 -33 11 -63z m-212 -54 c5 -13 14 -27 19 -31
13 -8 15 -95 2 -95 -10 0 -21 34 -21 66 0 12 -7 27 -15 34 -17 14 -20 50 -5
50 6 0 15 -11 20 -24z m158 -48 c7 -7 12 -28 12 -48 0 -36 0 -36 -42 -36 -39
1 -43 4 -52 34 -6 22 -6 36 2 44 15 15 29 3 36 -34 5 -25 9 -29 16 -18 5 8 6
27 3 42 -6 29 5 36 25 16z m-260 -72 c16 -35 46 -50 62 -31 10 12 16 13 26 4
8 -6 14 -17 14 -25 0 -20 17 -26 39 -14 16 8 23 5 41 -18 l22 -27 -31 -3 c-19
-2 -31 -9 -31 -18 0 -22 -16 -17 -55 18 -20 17 -51 38 -68 47 -33 16 -63 63
-52 81 10 16 21 12 33 -14z m292 -71 c0 -8 -4 -15 -9 -15 -13 0 -22 16 -14 24
11 11 23 6 23 -9z m124 -60 c16 -24 15 -25 -3 -25 -10 0 -22 7 -25 16 -16 40
3 47 28 9z"/>
<path d="M5322 15694 c-29 -13 -33 -19 -30 -47 3 -28 7 -32 37 -35 20 -2 37 2
42 10 13 19 11 52 -3 70 -12 14 -17 14 -46 2z"/>
<path d="M5220 15587 c0 -28 17 -45 30 -31 5 5 0 20 -11 33 l-19 23 0 -25z"/>
<path d="M5245 15230 c-3 -5 -1 -10 4 -10 6 0 11 5 11 10 0 6 -2 10 -4 10 -3
0 -8 -4 -11 -10z"/>
<path d="M5315 15091 c-25 -5 -30 -11 -33 -40 -4 -40 2 -47 49 -55 43 -8 53 7
43 60 -7 37 -16 43 -59 35z"/>
<path d="M5490 15040 c0 -5 5 -10 10 -10 6 0 10 5 10 10 0 6 -4 10 -10 10 -5
0 -10 -4 -10 -10z"/>
<path d="M5316 14672 c-4 -7 -9 -474 -6 -586 0 -15 6 -17 33 -13 17 2 42 0 55
-6 12 -6 25 -7 28 -4 10 10 17 446 9 532 -5 54 -11 78 -22 82 -8 3 -19 0 -24
-8 -5 -8 -9 -136 -9 -286 0 -170 -4 -274 -10 -278 -7 -4 -10 89 -10 272 0 204
-3 282 -12 291 -14 14 -25 15 -32 4z"/>
<path d="M5487 14673 c-4 -3 -7 -141 -7 -305 0 -252 2 -300 15 -304 8 -3 20
-2 27 3 7 4 23 8 36 8 l23 0 1 281 c0 155 -2 286 -6 293 -17 27 -26 5 -28 -71
l-2 -83 -3 75 c-3 50 -9 80 -20 92 -17 19 -26 22 -36 11z m60 -480 c-3 -10 -5
-2 -5 17 0 19 2 27 5 18 2 -10 2 -26 0 -35z"/>
<path d="M5616 14664 c-23 -23 -24 -585 -1 -604 20 -17 19 -39 -5 -78 -28 -45
-25 -64 16 -89 45 -29 52 -29 60 3 5 18 1 31 -15 48 -24 26 -26 60 -6 96 11
20 14 83 15 317 0 252 -2 294 -16 307 -8 9 -19 16 -24 16 -5 0 -16 -7 -24 -16z"/>
<path d="M4602 14658 c-16 -16 -17 -584 -2 -593 6 -4 10 -28 8 -53 -3 -41 0
-48 20 -57 13 -5 25 -20 29 -32 6 -26 21 -30 29 -8 4 9 -5 33 -19 54 -22 33
-24 40 -11 45 8 3 12 11 8 17 -4 6 -6 146 -5 311 2 301 0 328 -33 328 -7 0
-17 -5 -24 -12z"/>
<path d="M5216 14662 c-8 -13 -9 -569 -1 -582 11 -18 34 -11 40 13 3 12 4 146
3 297 -3 246 -5 275 -20 278 -9 2 -19 -1 -22 -6z"/>
<path d="M5732 14653 c-5 -10 -10 -143 -10 -296 l-2 -278 27 -25 c23 -21 25
-27 15 -50 -21 -44 -15 -102 13 -129 30 -31 49 -31 76 -4 18 18 21 30 17 77
-4 39 -10 59 -24 68 -46 32 -45 21 -44 330 1 217 -2 299 -10 309 -17 20 -47
19 -58 -2z m98 -682 c13 -26 13 -54 -2 -69 -19 -19 -38 6 -38 49 0 43 21 54
40 20z"/>
<path d="M4348 14368 c-3 -168 -2 -300 4 -310 34 -67 48 41 48 379 0 182 -6
223 -34 223 -11 0 -14 -59 -18 -292z"/>
<path d="M4717 14654 c-4 -4 -7 -137 -7 -296 0 -227 3 -289 12 -286 10 4 14
72 16 281 3 253 -2 320 -21 301z"/>
<path d="M5900 14651 c0 -6 -11 -9 -25 -8 l-26 2 -4 -270 c-3 -148 -2 -282 1
-297 5 -24 9 -27 42 -24 l37 2 3 269 c3 271 -1 335 -18 335 -6 0 -10 -4 -10
-9z"/>
<path d="M4171 14636 c-17 -20 -27 -572 -11 -591 17 -20 47 -19 59 3 14 27 15
571 0 588 -15 18 -33 18 -48 0z"/>
<path d="M4446 14643 c-4 -4 -6 -146 -6 -317 2 -300 2 -310 22 -326 20 -16 20
-18 5 -50 -18 -36 -23 -80 -8 -80 5 0 12 18 16 40 4 23 14 44 25 50 37 20 35
66 -3 72 -22 3 -22 4 -25 311 -1 169 -6 307 -10 307 -5 0 -12 -3 -16 -7z"/>
<path d="M4540 14411 c0 -131 -2 -258 -5 -282 -5 -41 6 -81 20 -68 6 7 13 558
7 577 -16 46 -22 -18 -22 -227z"/>
<path d="M5070 14641 c0 -6 5 -13 10 -16 6 -3 10 1 10 9 0 9 -4 16 -10 16 -5
0 -10 -4 -10 -9z"/>
<path d="M5966 14641 c-3 -4 -5 -146 -5 -315 1 -188 -2 -311 -8 -319 -6 -6
-13 -40 -17 -74 -7 -59 -5 -63 18 -78 22 -14 29 -15 53 -3 27 13 28 16 24 73
-1 33 -9 67 -17 76 -11 13 -14 73 -14 316 0 166 -3 308 -6 317 -7 18 -20 21
-28 7z m27 -735 c6 -16 -2 -28 -14 -20 -12 7 -11 34 0 34 5 0 11 -6 14 -14z"/>
<path d="M4275 14627 c-3 -7 -4 -138 -3 -291 2 -207 6 -280 15 -283 9 -3 13
61 15 269 2 150 1 283 -1 296 -4 24 -19 30 -26 9z"/>
<path d="M6065 14631 c-3 -2 -5 -161 -5 -351 0 -279 3 -350 13 -359 8 -6 17
-8 20 -4 4 3 13 0 21 -6 8 -7 20 -10 26 -6 11 7 15 661 4 702 -4 15 -15 22
-40 25 -19 2 -37 2 -39 -1z"/>
<path d="M4015 14608 c-3 -13 -4 -149 -3 -303 3 -272 4 -280 23 -280 19 0 20
8 25 270 6 317 5 335 -21 335 -11 0 -21 -9 -24 -22z"/>
<path d="M4107 14433 c-10 -280 -9 -381 4 -388 6 -4 13 -4 17 0 4 3 8 132 10
284 2 225 0 280 -11 289 -12 10 -15 -20 -20 -185z"/>
<path d="M4790 14593 c0 -18 5 -33 10 -33 13 0 13 30 0 50 -7 11 -10 7 -10
-17z"/>
<path d="M3970 14548 c0 -34 -3 -156 -7 -269 -6 -199 -1 -272 16 -253 5 5 10
137 12 293 3 221 1 285 -8 288 -10 4 -13 -12 -13 -59z"/>
<path d="M5076 14601 c-6 -9 -19 -323 -21 -461 0 -48 2 -55 20 -55 19 0 20 7
20 258 0 238 -3 284 -19 258z"/>
<path d="M3829 14528 c-4 -226 -2 -628 4 -634 4 -4 15 -1 23 8 14 14 14 31 4
149 -7 74 -12 218 -12 321 0 104 -4 190 -9 194 -5 3 -9 -14 -10 -38z"/>
<path d="M3890 14495 c0 -42 4 -64 10 -60 6 3 10 30 10 60 0 30 -4 57 -10 60
-6 4 -10 -18 -10 -60z"/>
<path d="M4792 14450 c-1 -39 2 -49 8 -34 4 11 5 36 0 55 -7 31 -8 29 -8 -21z"/>
<path d="M5164 14400 c0 -52 1 -74 3 -47 2 26 2 68 0 95 -2 26 -3 4 -3 -48z"/>
<path d="M4791 14214 c1 -79 4 -108 9 -86 9 37 6 189 -4 199 -3 3 -6 -47 -5
-113z"/>
<path d="M5159 14203 c-1 -35 -3 -73 -3 -85 -1 -12 5 -23 12 -25 14 -5 15 55
3 127 l-8 45 -4 -62z"/>
<path d="M4874 14235 c-12 -31 -9 -148 4 -152 10 -4 12 15 11 81 -2 86 -5 98
-15 71z"/>
<path d="M5291 14031 c-10 -6 -10 -17 -2 -47 6 -22 11 -52 11 -67 0 -16 4 -26
10 -22 12 7 13 114 2 132 -4 7 -13 9 -21 4z"/>
<path d="M4276 14015 c-3 -8 3 -19 14 -25 10 -5 20 -20 22 -32 5 -35 32 -28
36 9 2 23 -3 35 -20 47 -28 20 -44 20 -52 1z"/>
<path d="M5455 14021 c-3 -6 -3 -16 1 -22 3 -6 9 -33 13 -60 9 -73 26 -60 26
18 0 55 -3 68 -17 71 -9 2 -19 -2 -23 -7z"/>
<path d="M5140 14015 c0 -15 18 -40 24 -34 3 3 -1 14 -9 25 -8 10 -14 15 -15
9z"/>
<path d="M3958 13993 c-27 -31 -29 -55 -11 -105 9 -26 20 -48 23 -48 16 0 51
51 56 81 4 26 0 41 -16 62 -25 32 -32 33 -52 10z m42 -54 c0 -15 -30 -23 -42
-11 -6 6 -8 18 -4 27 4 13 10 14 26 5 11 -6 20 -15 20 -21z"/>
<path d="M4106 13988 c-20 -28 -21 -62 -1 -78 8 -7 15 -23 15 -37 0 -40 32
-24 58 29 21 42 22 50 10 75 -18 37 -60 43 -82 11z m52 -36 c3 -19 -1 -23 -15
-20 -10 2 -19 14 -21 26 -3 19 1 23 15 20 10 -2 19 -14 21 -26z"/>
<path d="M4840 13994 c0 -8 5 -12 10 -9 6 4 8 11 5 16 -9 14 -15 11 -15 -7z"/>
<path d="M3731 13957 c-14 -18 -32 -112 -25 -132 9 -23 43 -28 70 -10 24 15
25 20 18 73 -9 77 -34 104 -63 69z m29 -103 c0 -9 -5 -14 -12 -12 -18 6 -21
28 -4 28 9 0 16 -7 16 -16z"/>
<path d="M4261 13902 c-14 -26 5 -52 39 -52 41 0 45 15 13 44 -33 31 -39 32
-52 8z"/>
<path d="M4780 13895 c0 -9 9 -15 25 -15 28 0 34 15 9 24 -25 10 -34 7 -34 -9z"/>
<path d="M4625 13880 c4 -6 11 -8 16 -5 14 9 11 15 -7 15 -8 0 -12 -5 -9 -10z"/>
<path d="M4290 13793 c-36 -1 -131 -8 -212 -14 -145 -12 -148 -13 -148 -36 0
-21 4 -23 49 -23 28 0 53 5 56 10 4 7 11 8 18 2 14 -12 226 -10 244 1 6 4 14
4 16 -1 9 -14 148 -6 158 9 7 11 13 11 38 -4 39 -23 65 -21 85 6 15 22 16 22
31 3 12 -16 19 -17 37 -9 13 5 40 8 61 5 22 -2 49 1 60 6 12 6 38 13 57 14 50
4 39 22 -17 30 -46 6 -396 7 -533 1z"/>
<path d="M3935 13575 c-3 -36 -4 -78 0 -95 l7 -30 436 0 c240 0 447 3 459 6
13 4 20 11 16 20 -3 8 5 17 19 23 37 14 36 64 -1 91 -42 29 -138 24 -165 -8
l-18 -23 -22 20 c-12 12 -32 21 -44 21 -12 0 -27 9 -34 20 -13 21 -48 28 -48
10 0 -7 -13 -8 -34 -5 -27 6 -36 3 -48 -14 -13 -19 -16 -19 -37 -5 -13 10 -32
14 -47 10 -17 -5 -24 -2 -24 9 0 11 -12 15 -50 15 -38 0 -50 -4 -50 -15 0 -8
-4 -15 -9 -15 -5 0 -14 7 -21 15 -16 20 -47 19 -58 -1 -6 -11 -11 -13 -16 -5
-12 19 -33 12 -32 -11 1 -20 -4 -23 -29 -20 -54 5 -73 12 -78 30 -4 13 -5 12
-6 -5 -1 -28 -19 -39 -28 -17 -4 10 -2 19 5 22 17 5 4 22 -17 22 -15 0 -20
-11 -26 -65z"/>
<path d="M5072 12952 c-18 -12 -26 -75 -13 -101 14 -25 66 -29 75 -5 10 27 7
89 -6 102 -14 14 -37 15 -56 4z"/>
<path d="M5546 12938 c-30 -43 -13 -108 27 -108 34 0 47 19 47 65 0 64 -42 88
-74 43z"/>
<path d="M6621 12946 c-7 -8 -11 -35 -9 -63 3 -48 3 -48 38 -48 30 0 35 4 43
31 17 60 -38 121 -72 80z"/>
<path d="M3366 12944 c-26 -25 -19 -34 29 -34 49 0 50 1 35 31 -13 23 -43 25
-64 3z"/>
<path d="M3666 12877 c-21 -15 -12 -47 14 -47 34 0 50 12 50 36 0 18 -5 24
-23 24 -13 0 -31 -6 -41 -13z"/>
<path d="M4216 12877 c-21 -15 -12 -47 14 -47 34 0 50 12 50 36 0 18 -5 24
-23 24 -13 0 -31 -6 -41 -13z"/>
<path d="M4866 12938 c-33 -47 -13 -108 34 -108 47 0 67 61 34 108 -19 28 -49
28 -68 0z"/>
<path d="M5266 12944 c-26 -25 -19 -34 29 -34 49 0 50 1 35 31 -13 23 -43 25
-64 3z"/>
<path d="M5760 12883 c-36 -14 -33 -53 4 -53 27 0 46 18 46 42 0 18 -20 22
-50 11z"/>
<path d="M6026 12875 c-19 -19 -10 -45 14 -45 34 0 50 12 50 36 0 19 -5 24
-24 24 -14 0 -31 -7 -40 -15z"/>
<path d="M7096 12944 c-19 -19 -21 -74 -3 -98 9 -12 23 -17 42 -14 28 3 30 6
33 51 5 70 -32 101 -72 61z"/>
<path d="M7476 12877 c-21 -15 -12 -47 14 -47 34 0 50 12 50 36 0 18 -5 24
-23 24 -13 0 -31 -6 -41 -13z"/>
<path d="M5068 2623 c7 -3 16 -2 19 1 4 3 -2 6 -13 5 -11 0 -14 -3 -6 -6z"/>
<path d="M5375 2300 c-6 -10 19 -60 31 -60 8 0 -5 53 -16 63 -4 5 -11 4 -15
-3z"/>
<path d="M5210 2175 c32 -33 50 -37 50 -12 0 13 -54 47 -73 47 -6 0 4 -16 23
-35z"/>
<path d="M5440 2191 c0 -5 8 -11 18 -15 9 -3 23 -9 31 -12 10 -5 12 -2 8 9 -4
10 0 17 11 20 9 3 -2 5 -25 6 -24 0 -43 -3 -43 -8z"/>
<path d="M5740 1670 c0 -5 -9 -10 -20 -10 -24 0 -27 -32 -5 -50 12 -10 22 -9
51 5 l37 17 -26 24 c-28 26 -37 29 -37 14z"/>
<path d="M8400 2421 c-91 -29 -142 -61 -211 -130 -103 -103 -148 -214 -149
-362 0 -130 49 -249 143 -347 59 -61 104 -87 122 -72 23 19 58 7 83 -30 28
-43 44 -48 153 -49 97 -1 165 15 252 62 64 34 177 147 177 177 0 11 9 27 20
38 52 48 77 247 45 357 -51 177 -181 308 -354 359 -73 22 -210 20 -281 -3z
m91 -250 c20 -20 29 -39 29 -61 0 -37 -47 -90 -80 -90 -29 0 -76 26 -84 45
-37 98 64 177 135 106z m263 -288 c42 -92 75 -174 74 -182 -3 -14 -37 -16
-269 -19 -227 -2 -268 0 -279 13 -10 12 -2 28 46 96 33 45 67 87 77 93 19 11
24 7 60 -47 11 -17 20 -7 87 89 87 125 96 135 114 128 7 -3 47 -80 90 -171z"/>
<path d="M8388 2135 c-18 -41 3 -75 46 -75 36 0 56 20 56 54 0 47 -82 64 -102
21z"/>
<path d="M8569 1894 c-46 -68 -89 -123 -96 -124 -6 0 -23 18 -36 41 l-24 40
-52 -70 -51 -71 240 0 c132 0 240 4 240 9 0 4 -31 74 -68 153 l-68 146 -85
-124z"/>
</g>
</svg>
