<!DOCTYPE svg PUBLIC "-//W3C//DTD SVG 1.1//EN" "http://www.w3.org/Graphics/SVG/1.1/DTD/svg11.dtd">
<!-- Uploaded to: SVG Repo, www.svgrepo.com, Transformed by: SVG Repo Mixer Tools -->
<svg fill="#cbe218" width="800px" height="800px" viewBox="-1.9 -1.9 22.80 22.80" xmlns="http://www.w3.org/2000/svg" class="cf-icon-svg" stroke="#cbe218" transform="rotate(0)">
<g id="SVGRepo_bgCarrier" stroke-width="0">
<path transform="translate(-1.9, -1.9), scale(0.7125)" d="M16,30.086668540968706C18.56707948065655,29.191586222054337,18.976596423911534,25.63317081160374,21.09903182537726,23.934248393055427C22.885188438214662,22.50450334145472,25.937060849807004,23.02152060948473,27.205297449213877,21.117287880513718C28.482823528528893,19.19910717709971,27.982991353226563,16.598762653009604,27.482889358203902,14.34900975794441C27.008281749014497,12.213945604190226,25.646907916490083,10.510381129900212,24.4417417685291,8.685189118314735C23.047596922368303,6.5737939048739005,22.36089038630657,3.264166960876319,19.870101351475093,2.8196452140732404C17.306340796829623,2.36210051470333,15.718958334738868,5.814433481369106,13.26657183801495,6.690798590307006C11.032868986625717,7.489016671065341,8.086837443554508,6.020568013083368,6.360501605653978,7.647327094058234C4.6511321081972925,9.258098469870529,5.594360299788173,12.140185082327164,5.057184222903777,14.426660616067826C4.4514738311038915,17.00485061927036,2.470120027362749,19.34111662386687,3.0037662061668016,21.935181104020685C3.5684297173818322,24.680021441797543,5.581829260008606,27.027974880505937,7.955820430072684,28.516987736475432C10.318054836203334,29.998626524309284,13.367022297456268,31.00472807336773,16,30.086668540968706" fill="#7ed0ec" strokewidth="0"/>
</g>
<g id="SVGRepo_tracerCarrier" stroke-linecap="round" stroke-linejoin="round"/>
<g id="SVGRepo_iconCarrier">
<path d="M10.328 6.83a5.903 5.903 0 0 1-1.439 3.64 2.874 2.874 0 0 0-.584 1v1.037a.95.95 0 0 1-.95.95h-3.71a.95.95 0 0 1-.95-.95V11.47a2.876 2.876 0 0 0-.584-1A5.903 5.903 0 0 1 .67 6.83a4.83 4.83 0 0 1 9.28-1.878 4.796 4.796 0 0 1 .38 1.88zm-.95 0a3.878 3.878 0 0 0-7.756 0c0 2.363 2.023 3.409 2.023 4.64v1.037h3.71V11.47c0-1.231 2.023-2.277 2.023-4.64zM7.83 14.572a.475.475 0 0 1-.475.476h-3.71a.475.475 0 0 1 0-.95h3.71a.475.475 0 0 1 .475.474zm-.64 1.262a.238.238 0 0 1-.078.265 2.669 2.669 0 0 1-3.274 0 .237.237 0 0 1 .145-.425h2.983a.238.238 0 0 1 .225.16z"/>
</g>
</svg>