<!DOCTYPE svg PUBLIC "-//W3C//DTD SVG 1.1//EN" "http://www.w3.org/Graphics/SVG/1.1/DTD/svg11.dtd">
<!-- Uploaded to: SVG Repo, www.svgrepo.com, Transformed by: SVG Repo Mixer Tools -->
<svg fill="#121111" width="800px" height="800px" viewBox="0 0 32.00 32.00" version="1.1" xmlns="http://www.w3.org/2000/svg" stroke="#121111" stroke-width="0.00032">
<g id="SVGRepo_bgCarrier" stroke-width="0"/>
<g id="SVGRepo_tracerCarrier" stroke-linecap="round" stroke-linejoin="round"/>
<g id="SVGRepo_iconCarrier"> <title>alt-paper-roll</title> <path d="M0 32l4-4 4 4 4-4 4 4 4-4 4 4v-16q3.328 0 5.664-2.336t2.336-5.664-2.336-5.632-5.664-2.368h-17.984q-2.496 0-4.256 1.76t-1.76 4.256v25.984zM4 22.016v-16q0-0.832 0.576-1.408t1.44-0.608h13.984v18.016l-4 4-4-4-4 4zM8 18.016h8v-2.016h-8v2.016zM8 14.016h8v-2.016h-8v2.016zM8 10.016h8v-2.016h-8v2.016zM24 12v-8q1.664 0 2.816 1.184t1.184 2.816-1.184 2.848-2.816 1.152z"/> </g>
</svg>