<!DOCTYPE svg PUBLIC "-//W3C//DTD SVG 1.1//EN" "http://www.w3.org/Graphics/SVG/1.1/DTD/svg11.dtd">
<!-- Uploaded to: SVG Repo, www.svgrepo.com, Transformed by: SVG Repo Mixer Tools -->
<svg width="800px" height="800px" viewBox="-2.4 -2.4 28.80 28.80" fill="none" xmlns="http://www.w3.org/2000/svg">
<g id="SVGRepo_bgCarrier" stroke-width="0">
<path transform="translate(-2.4, -2.4), scale(0.8999999999999999)" d="M16,30.012417908757925C17.944504570386066,30.569526431860638,20.379750954718233,30.660734150277253,21.97191823642077,29.41314796975026C23.66169239411412,28.08907925437282,23.072723902739746,25.238774260193757,24.321005302742364,23.492266827212998C25.394841400273425,21.989830977301978,27.70017276211298,21.700218547137876,28.626457789060673,20.10258482931921C29.570840551829377,18.4737365802033,29.4444635428512,16.464826534104088,29.48676944470493,14.582483411309799C29.532598935710762,12.543363018267456,29.91049443843392,10.323931586893046,28.885871241929863,8.560338769728942C27.86120367812305,6.796669587070938,25.790277879083014,5.93865051041032,23.951688193575293,5.055440133138882C22.27791119566296,4.251401458579377,20.485073315351826,3.590653937713092,18.62867622797132,3.6330506698159137C16.8842860721881,3.6728893673770573,15.461489712760487,5.136618397517846,13.723314655002438,5.289037576116112C11.691064148988145,5.46724399522797,9.664840500599643,4.005406703255594,7.710482738489381,4.590458311823065C5.735925939488382,5.181556653109359,4.127521272872146,6.768661447979059,3.0053558262848803,8.497538688282164C1.8685819529387924,10.24892257109219,1.5448108787971313,12.381322884809189,1.3072156814933003,14.455726140279818C1.0684075567539266,16.540719258885265,0.5899582261961602,18.841669670304476,1.6105423142544346,20.675418220208705C2.6456928715401697,22.53533927479494,4.946453411228535,23.224330556383816,6.784708038204785,24.297486151785776C8.252700995531255,25.15448650040284,9.93468140120798,25.482436063726954,11.379277357941156,26.37831297607599C13.062965494333916,27.422464679505445,14.095449640523569,29.46675643071265,16,30.012417908757925" fill="#7ed0ec" strokewidth="0"/>
</g>
<g id="SVGRepo_tracerCarrier" stroke-linecap="round" stroke-linejoin="round"/>
<g id="SVGRepo_iconCarrier"> <path d="M9 2C9 1.44772 9.44772 1 10 1H14C14.5523 1 15 1.44772 15 2V3C15 3.55228 14.5523 4 14 4H10C9.44772 4 9 3.55228 9 3V2Z" fill="#d12323"/> <rect x="5.75" y="1.75" width="12.5" height="20.5" rx="1.75" stroke="#d12323" stroke-width="1.5"/> <path d="M9 19.5H15" stroke="#d12323" stroke-width="1.5" stroke-linecap="round"/> </g>
</svg>