<!DOCTYPE svg PUBLIC "-//W3C//DTD SVG 1.1//EN" "http://www.w3.org/Graphics/SVG/1.1/DTD/svg11.dtd">
<!-- Uploaded to: SVG Repo, www.svgrepo.com, Transformed by: SVG Repo Mixer Tools -->
<svg fill="#27d1dd" width="800px" height="800px" viewBox="-3.2 -3.2 38.40 38.40" version="1.1" xmlns="http://www.w3.org/2000/svg">
<g id="SVGRepo_bgCarrier" stroke-width="0">
<path transform="translate(-3.2, -3.2), scale(1.2)" d="M16,26.601623103022575C18.773418338249513,26.48125317500706,21.839590883080003,27.276910351256063,24.007244688042974,25.542662623756122C26.192726979891766,23.79415108125228,26.39429210026375,20.674739933306668,26.85804116607318,17.914565615221903C27.31716314062287,15.181931144447162,27.563596920091936,12.468811367219317,26.64294932161866,9.855290344191925C25.529452540231787,6.6943118633335965,24.453714457427903,2.475905714388471,21.175031042447703,1.7817190658982298C17.84246677433715,1.076124372129368,15.915940967382806,5.812099138683899,12.688115313210911,6.900671607209436C9.301638279071287,8.042748676921605,4.642328223618881,5.374180350384026,2.362271561957,8.126253815160851C0.1351186077304738,10.814471459216522,2.361082548825812,14.876342678444317,3.293169378535948,18.240557077856618C4.119784103603269,21.22408722998047,4.801231999503516,24.562224324140793,7.387497271684898,26.26398106769695C9.8621911933151,27.89232411304109,13.040420336058775,26.730072672347067,16,26.601623103022575" fill="#0f91bd" strokewidth="0"/>
</g>
<g id="SVGRepo_tracerCarrier" stroke-linecap="round" stroke-linejoin="round"/>
<g id="SVGRepo_iconCarrier"> <title>water-drop</title> <path d="M25.378 19.75c1.507 6.027-3.162 11.25-9.375 11.25s-10.9-5.149-9.375-11.25c0.937-3.75 5.625-9.375 9.375-18.75 3.75 9.374 8.438 15 9.375 18.75z"/> </g>
</svg>